<?xml version="1.0" encoding="utf-8"?>
<svg version="1.1" xmlns="http://www.w3.org/2000/svg" xmlns:xlink="http://www.w3.org/1999/xlink" width="1000" height="1000" viewBox="0 0 1000 1000" enable-background="new 0 0 1000 1000" xml:space="preserve"><g transform="translate(0,0) scale(1.0,1.0)"><svg width="1000" height="1000" viewBox="0 0 820 820" enable-background="new 0 0 1000 1000" xml:space="preserve"><rect x="0" y="0" width="820" height="820" fill="rgb(255,255,255)" opacity="1.0" /><rect x="240" y="80" rx="6.6666665" ry="6.6666665" width="20" height="20" fill="rgb(0,0,0)" opacity="1.0" /><rect x="260" y="80" rx="6.6666665" ry="6.6666665" width="20" height="20" fill="rgb(0,0,0)" opacity="1.0" /><rect x="420" y="80" rx="6.6666665" ry="6.6666665" width="20" height="20" fill="rgb(0,0,0)" opacity="1.0" /><rect x="440" y="80" rx="6.6666665" ry="6.6666665" width="20" height="20" fill="rgb(0,0,0)" opacity="1.0" /><rect x="480" y="80" rx="6.6666665" ry="6.6666665" width="20" height="20" fill="rgb(0,0,0)" opacity="1.0" /><rect x="500" y="80" rx="6.6666665" ry="6.6666665" width="20" height="20" fill="rgb(0,0,0)" opacity="1.0" /><rect x="560" y="80" rx="6.6666665" ry="6.6666665" width="20" height="20" fill="rgb(0,0,0)" opacity="1.0" /><rect x="260" y="100" rx="6.6666665" ry="6.6666665" width="20" height="20" fill="rgb(0,0,0)" opacity="1.0" /><rect x="380" y="100" rx="6.6666665" ry="6.6666665" width="20" height="20" fill="rgb(0,0,0)" opacity="1.0" /><rect x="420" y="100" rx="6.6666665" ry="6.6666665" width="20" height="20" fill="rgb(0,0,0)" opacity="1.0" /><rect x="500" y="100" rx="6.6666665" ry="6.6666665" width="20" height="20" fill="rgb(0,0,0)" opacity="1.0" /><rect x="520" y="100" rx="6.6666665" ry="6.6666665" width="20" height="20" fill="rgb(0,0,0)" opacity="1.0" /><rect x="540" y="100" rx="6.6666665" ry="6.6666665" width="20" height="20" fill="rgb(0,0,0)" opacity="1.0" /><rect x="560" y="100" rx="6.6666665" ry="6.6666665" width="20" height="20" fill="rgb(0,0,0)" opacity="1.0" /><rect x="260" y="120" rx="6.6666665" ry="6.6666665" width="20" height="20" fill="rgb(0,0,0)" opacity="1.0" /><rect x="280" y="120" rx="6.6666665" ry="6.6666665" width="20" height="20" fill="rgb(0,0,0)" opacity="1.0" /><rect x="340" y="120" rx="6.6666665" ry="6.6666665" width="20" height="20" fill="rgb(0,0,0)" opacity="1.0" /><rect x="480" y="120" rx="6.6666665" ry="6.6666665" width="20" height="20" fill="rgb(0,0,0)" opacity="1.0" /><rect x="520" y="120" rx="6.6666665" ry="6.6666665" width="20" height="20" fill="rgb(0,0,0)" opacity="1.0" /><rect x="560" y="120" rx="6.6666665" ry="6.6666665" width="20" height="20" fill="rgb(0,0,0)" opacity="1.0" /><rect x="240" y="140" rx="6.6666665" ry="6.6666665" width="20" height="20" fill="rgb(0,0,0)" opacity="1.0" /><rect x="320" y="140" rx="6.6666665" ry="6.6666665" width="20" height="20" fill="rgb(0,0,0)" opacity="1.0" /><rect x="360" y="140" rx="6.6666665" ry="6.6666665" width="20" height="20" fill="rgb(0,0,0)" opacity="1.0" /><rect x="380" y="140" rx="6.6666665" ry="6.6666665" width="20" height="20" fill="rgb(0,0,0)" opacity="1.0" /><rect x="420" y="140" rx="6.6666665" ry="6.6666665" width="20" height="20" fill="rgb(0,0,0)" opacity="1.0" /><rect x="440" y="140" rx="6.6666665" ry="6.6666665" width="20" height="20" fill="rgb(0,0,0)" opacity="1.0" /><rect x="480" y="140" rx="6.6666665" ry="6.6666665" width="20" height="20" fill="rgb(0,0,0)" opacity="1.0" /><rect x="500" y="140" rx="6.6666665" ry="6.6666665" width="20" height="20" fill="rgb(0,0,0)" opacity="1.0" /><rect x="540" y="140" rx="6.6666665" ry="6.6666665" width="20" height="20" fill="rgb(0,0,0)" opacity="1.0" /><rect x="240" y="160" rx="6.6666665" ry="6.6666665" width="20" height="20" fill="rgb(0,0,0)" opacity="1.0" /><rect x="260" y="160" rx="6.6666665" ry="6.6666665" width="20" height="20" fill="rgb(0,0,0)" opacity="1.0" /><rect x="280" y="160" rx="6.6666665" ry="6.6666665" width="20" height="20" fill="rgb(0,0,0)" opacity="1.0" /><rect x="320" y="160" rx="6.6666665" ry="6.6666665" width="20" height="20" fill="rgb(0,0,0)" opacity="1.0" /><rect x="340" y="160" rx="6.6666665" ry="6.6666665" width="20" height="20" fill="rgb(0,0,0)" opacity="1.0" /><rect x="360" y="160" rx="6.6666665" ry="6.6666665" width="20" height="20" fill="rgb(0,0,0)" opacity="1.0" /><rect x="440" y="160" rx="6.6666665" ry="6.6666665" width="20" height="20" fill="rgb(0,0,0)" opacity="1.0" /><rect x="460" y="160" rx="6.6666665" ry="6.6666665" width="20" height="20" fill="rgb(0,0,0)" opacity="1.0" /><rect x="480" y="160" rx="6.6666665" ry="6.6666665" width="20" height="20" fill="rgb(0,0,0)" opacity="1.0" /><rect x="560" y="160" rx="6.6666665" ry="6.6666665" width="20" height="20" fill="rgb(0,0,0)" opacity="1.0" /><rect x="240" y="180" rx="6.6666665" ry="6.6666665" width="20" height="20" fill="rgb(0,0,0)" opacity="1.0" /><rect x="260" y="180" rx="6.6666665" ry="6.6666665" width="20" height="20" fill="rgb(0,0,0)" opacity="1.0" /><rect x="320" y="180" rx="6.6666665" ry="6.6666665" width="20" height="20" fill="rgb(0,0,0)" opacity="1.0" /><rect x="360" y="180" rx="6.6666665" ry="6.6666665" width="20" height="20" fill="rgb(0,0,0)" opacity="1.0" /><rect x="400" y="180" rx="6.6666665" ry="6.6666665" width="20" height="20" fill="rgb(0,0,0)" opacity="1.0" /><rect x="420" y="180" rx="6.6666665" ry="6.6666665" width="20" height="20" fill="rgb(0,0,0)" opacity="1.0" /><rect x="460" y="180" rx="6.6666665" ry="6.6666665" width="20" height="20" fill="rgb(0,0,0)" opacity="1.0" /><rect x="500" y="180" rx="6.6666665" ry="6.6666665" width="20" height="20" fill="rgb(0,0,0)" opacity="1.0" /><rect x="520" y="180" rx="6.6666665" ry="6.6666665" width="20" height="20" fill="rgb(0,0,0)" opacity="1.0" /><rect x="560" y="180" rx="6.6666665" ry="6.6666665" width="20" height="20" fill="rgb(0,0,0)" opacity="1.0" /><rect x="240" y="200" rx="6.6666665" ry="6.6666665" width="20" height="20" fill="rgb(0,0,0)" opacity="1.0" /><rect x="280" y="200" rx="6.6666665" ry="6.6666665" width="20" height="20" fill="rgb(0,0,0)" opacity="1.0" /><rect x="320" y="200" rx="6.6666665" ry="6.6666665" width="20" height="20" fill="rgb(0,0,0)" opacity="1.0" /><rect x="360" y="200" rx="6.6666665" ry="6.6666665" width="20" height="20" fill="rgb(0,0,0)" opacity="1.0" /><rect x="400" y="200" rx="6.6666665" ry="6.6666665" width="20" height="20" fill="rgb(0,0,0)" opacity="1.0" /><rect x="440" y="200" rx="6.6666665" ry="6.6666665" width="20" height="20" fill="rgb(0,0,0)" opacity="1.0" /><rect x="480" y="200" rx="6.6666665" ry="6.6666665" width="20" height="20" fill="rgb(0,0,0)" opacity="1.0" /><rect x="520" y="200" rx="6.6666665" ry="6.6666665" width="20" height="20" fill="rgb(0,0,0)" opacity="1.0" /><rect x="560" y="200" rx="6.6666665" ry="6.6666665" width="20" height="20" fill="rgb(0,0,0)" opacity="1.0" /><rect x="240" y="220" rx="6.6666665" ry="6.6666665" width="20" height="20" fill="rgb(0,0,0)" opacity="1.0" /><rect x="260" y="220" rx="6.6666665" ry="6.6666665" width="20" height="20" fill="rgb(0,0,0)" opacity="1.0" /><rect x="280" y="220" rx="6.6666665" ry="6.6666665" width="20" height="20" fill="rgb(0,0,0)" opacity="1.0" /><rect x="300" y="220" rx="6.6666665" ry="6.6666665" width="20" height="20" fill="rgb(0,0,0)" opacity="1.0" /><rect x="360" y="220" rx="6.6666665" ry="6.6666665" width="20" height="20" fill="rgb(0,0,0)" opacity="1.0" /><rect x="380" y="220" rx="6.6666665" ry="6.6666665" width="20" height="20" fill="rgb(0,0,0)" opacity="1.0" /><rect x="400" y="220" rx="6.6666665" ry="6.6666665" width="20" height="20" fill="rgb(0,0,0)" opacity="1.0" /><rect x="500" y="220" rx="6.6666665" ry="6.6666665" width="20" height="20" fill="rgb(0,0,0)" opacity="1.0" /><rect x="540" y="220" rx="6.6666665" ry="6.6666665" width="20" height="20" fill="rgb(0,0,0)" opacity="1.0" /><rect x="80" y="240" rx="6.6666665" ry="6.6666665" width="20" height="20" fill="rgb(0,0,0)" opacity="1.0" /><rect x="160" y="240" rx="6.6666665" ry="6.6666665" width="20" height="20" fill="rgb(0,0,0)" opacity="1.0" /><rect x="200" y="240" rx="6.6666665" ry="6.6666665" width="20" height="20" fill="rgb(0,0,0)" opacity="1.0" /><rect x="220" y="240" rx="6.6666665" ry="6.6666665" width="20" height="20" fill="rgb(0,0,0)" opacity="1.0" /><rect x="240" y="240" rx="6.6666665" ry="6.6666665" width="20" height="20" fill="rgb(0,0,0)" opacity="1.0" /><rect x="300" y="240" rx="6.6666665" ry="6.6666665" width="20" height="20" fill="rgb(0,0,0)" opacity="1.0" /><rect x="340" y="240" rx="6.6666665" ry="6.6666665" width="20" height="20" fill="rgb(0,0,0)" opacity="1.0" /><rect x="360" y="240" rx="6.6666665" ry="6.6666665" width="20" height="20" fill="rgb(0,0,0)" opacity="1.0" /><rect x="440" y="240" rx="6.6666665" ry="6.6666665" width="20" height="20" fill="rgb(0,0,0)" opacity="1.0" /><rect x="460" y="240" rx="6.6666665" ry="6.6666665" width="20" height="20" fill="rgb(0,0,0)" opacity="1.0" /><rect x="520" y="240" rx="6.6666665" ry="6.6666665" width="20" height="20" fill="rgb(0,0,0)" opacity="1.0" /><rect x="560" y="240" rx="6.6666665" ry="6.6666665" width="20" height="20" fill="rgb(0,0,0)" opacity="1.0" /><rect x="580" y="240" rx="6.6666665" ry="6.6666665" width="20" height="20" fill="rgb(0,0,0)" opacity="1.0" /><rect x="600" y="240" rx="6.6666665" ry="6.6666665" width="20" height="20" fill="rgb(0,0,0)" opacity="1.0" /><rect x="620" y="240" rx="6.6666665" ry="6.6666665" width="20" height="20" fill="rgb(0,0,0)" opacity="1.0" /><rect x="640" y="240" rx="6.6666665" ry="6.6666665" width="20" height="20" fill="rgb(0,0,0)" opacity="1.0" /><rect x="660" y="240" rx="6.6666665" ry="6.6666665" width="20" height="20" fill="rgb(0,0,0)" opacity="1.0" /><rect x="720" y="240" rx="6.6666665" ry="6.6666665" width="20" height="20" fill="rgb(0,0,0)" opacity="1.0" /><rect x="100" y="260" rx="6.6666665" ry="6.6666665" width="20" height="20" fill="rgb(0,0,0)" opacity="1.0" /><rect x="120" y="260" rx="6.6666665" ry="6.6666665" width="20" height="20" fill="rgb(0,0,0)" opacity="1.0" /><rect x="160" y="260" rx="6.6666665" ry="6.6666665" width="20" height="20" fill="rgb(0,0,0)" opacity="1.0" /><rect x="180" y="260" rx="6.6666665" ry="6.6666665" width="20" height="20" fill="rgb(0,0,0)" opacity="1.0" /><rect x="240" y="260" rx="6.6666665" ry="6.6666665" width="20" height="20" fill="rgb(0,0,0)" opacity="1.0" /><rect x="280" y="260" rx="6.6666665" ry="6.6666665" width="20" height="20" fill="rgb(0,0,0)" opacity="1.0" /><rect x="340" y="260" rx="6.6666665" ry="6.6666665" width="20" height="20" fill="rgb(0,0,0)" opacity="1.0" /><rect x="380" y="260" rx="6.6666665" ry="6.6666665" width="20" height="20" fill="rgb(0,0,0)" opacity="1.0" /><rect x="400" y="260" rx="6.6666665" ry="6.6666665" width="20" height="20" fill="rgb(0,0,0)" opacity="1.0" /><rect x="520" y="260" rx="6.6666665" ry="6.6666665" width="20" height="20" fill="rgb(0,0,0)" opacity="1.0" /><rect x="580" y="260" rx="6.6666665" ry="6.6666665" width="20" height="20" fill="rgb(0,0,0)" opacity="1.0" /><rect x="640" y="260" rx="6.6666665" ry="6.6666665" width="20" height="20" fill="rgb(0,0,0)" opacity="1.0" /><rect x="660" y="260" rx="6.6666665" ry="6.6666665" width="20" height="20" fill="rgb(0,0,0)" opacity="1.0" /><rect x="680" y="260" rx="6.6666665" ry="6.6666665" width="20" height="20" fill="rgb(0,0,0)" opacity="1.0" /><rect x="700" y="260" rx="6.6666665" ry="6.6666665" width="20" height="20" fill="rgb(0,0,0)" opacity="1.0" /><rect x="720" y="260" rx="6.6666665" ry="6.6666665" width="20" height="20" fill="rgb(0,0,0)" opacity="1.0" /><rect x="80" y="280" rx="6.6666665" ry="6.6666665" width="20" height="20" fill="rgb(0,0,0)" opacity="1.0" /><rect x="100" y="280" rx="6.6666665" ry="6.6666665" width="20" height="20" fill="rgb(0,0,0)" opacity="1.0" /><rect x="120" y="280" rx="6.6666665" ry="6.6666665" width="20" height="20" fill="rgb(0,0,0)" opacity="1.0" /><rect x="180" y="280" rx="6.6666665" ry="6.6666665" width="20" height="20" fill="rgb(0,0,0)" opacity="1.0" /><rect x="200" y="280" rx="6.6666665" ry="6.6666665" width="20" height="20" fill="rgb(0,0,0)" opacity="1.0" /><rect x="260" y="280" rx="6.6666665" ry="6.6666665" width="20" height="20" fill="rgb(0,0,0)" opacity="1.0" /><rect x="320" y="280" rx="6.6666665" ry="6.6666665" width="20" height="20" fill="rgb(0,0,0)" opacity="1.0" /><rect x="400" y="280" rx="6.6666665" ry="6.6666665" width="20" height="20" fill="rgb(0,0,0)" opacity="1.0" /><rect x="420" y="280" rx="6.6666665" ry="6.6666665" width="20" height="20" fill="rgb(0,0,0)" opacity="1.0" /><rect x="460" y="280" rx="6.6666665" ry="6.6666665" width="20" height="20" fill="rgb(0,0,0)" opacity="1.0" /><rect x="500" y="280" rx="6.6666665" ry="6.6666665" width="20" height="20" fill="rgb(0,0,0)" opacity="1.0" /><rect x="520" y="280" rx="6.6666665" ry="6.6666665" width="20" height="20" fill="rgb(0,0,0)" opacity="1.0" /><rect x="540" y="280" rx="6.6666665" ry="6.6666665" width="20" height="20" fill="rgb(0,0,0)" opacity="1.0" /><rect x="560" y="280" rx="6.6666665" ry="6.6666665" width="20" height="20" fill="rgb(0,0,0)" opacity="1.0" /><rect x="580" y="280" rx="6.6666665" ry="6.6666665" width="20" height="20" fill="rgb(0,0,0)" opacity="1.0" /><rect x="660" y="280" rx="6.6666665" ry="6.6666665" width="20" height="20" fill="rgb(0,0,0)" opacity="1.0" /><rect x="680" y="280" rx="6.6666665" ry="6.6666665" width="20" height="20" fill="rgb(0,0,0)" opacity="1.0" /><rect x="720" y="280" rx="6.6666665" ry="6.6666665" width="20" height="20" fill="rgb(0,0,0)" opacity="1.0" /><rect x="120" y="300" rx="6.6666665" ry="6.6666665" width="20" height="20" fill="rgb(0,0,0)" opacity="1.0" /><rect x="140" y="300" rx="6.6666665" ry="6.6666665" width="20" height="20" fill="rgb(0,0,0)" opacity="1.0" /><rect x="240" y="300" rx="6.6666665" ry="6.6666665" width="20" height="20" fill="rgb(0,0,0)" opacity="1.0" /><rect x="280" y="300" rx="6.6666665" ry="6.6666665" width="20" height="20" fill="rgb(0,0,0)" opacity="1.0" /><rect x="320" y="300" rx="6.6666665" ry="6.6666665" width="20" height="20" fill="rgb(0,0,0)" opacity="1.0" /><rect x="360" y="300" rx="6.6666665" ry="6.6666665" width="20" height="20" fill="rgb(0,0,0)" opacity="1.0" /><rect x="420" y="300" rx="6.6666665" ry="6.6666665" width="20" height="20" fill="rgb(0,0,0)" opacity="1.0" /><rect x="440" y="300" rx="6.6666665" ry="6.6666665" width="20" height="20" fill="rgb(0,0,0)" opacity="1.0" /><rect x="460" y="300" rx="6.6666665" ry="6.6666665" width="20" height="20" fill="rgb(0,0,0)" opacity="1.0" /><rect x="500" y="300" rx="6.6666665" ry="6.6666665" width="20" height="20" fill="rgb(0,0,0)" opacity="1.0" /><rect x="560" y="300" rx="6.6666665" ry="6.6666665" width="20" height="20" fill="rgb(0,0,0)" opacity="1.0" /><rect x="600" y="300" rx="6.6666665" ry="6.6666665" width="20" height="20" fill="rgb(0,0,0)" opacity="1.0" /><rect x="620" y="300" rx="6.6666665" ry="6.6666665" width="20" height="20" fill="rgb(0,0,0)" opacity="1.0" /><rect x="640" y="300" rx="6.6666665" ry="6.6666665" width="20" height="20" fill="rgb(0,0,0)" opacity="1.0" /><rect x="660" y="300" rx="6.6666665" ry="6.6666665" width="20" height="20" fill="rgb(0,0,0)" opacity="1.0" /><rect x="680" y="300" rx="6.6666665" ry="6.6666665" width="20" height="20" fill="rgb(0,0,0)" opacity="1.0" /><rect x="100" y="320" rx="6.6666665" ry="6.6666665" width="20" height="20" fill="rgb(0,0,0)" opacity="1.0" /><rect x="160" y="320" rx="6.6666665" ry="6.6666665" width="20" height="20" fill="rgb(0,0,0)" opacity="1.0" /><rect x="180" y="320" rx="6.6666665" ry="6.6666665" width="20" height="20" fill="rgb(0,0,0)" opacity="1.0" /><rect x="200" y="320" rx="6.6666665" ry="6.6666665" width="20" height="20" fill="rgb(0,0,0)" opacity="1.0" /><rect x="220" y="320" rx="6.6666665" ry="6.6666665" width="20" height="20" fill="rgb(0,0,0)" opacity="1.0" /><rect x="240" y="320" rx="6.6666665" ry="6.6666665" width="20" height="20" fill="rgb(0,0,0)" opacity="1.0" /><rect x="260" y="320" rx="6.6666665" ry="6.6666665" width="20" height="20" fill="rgb(0,0,0)" opacity="1.0" /><rect x="320" y="320" rx="6.6666665" ry="6.6666665" width="20" height="20" fill="rgb(0,0,0)" opacity="1.0" /><rect x="340" y="320" rx="6.6666665" ry="6.6666665" width="20" height="20" fill="rgb(0,0,0)" opacity="1.0" /><rect x="360" y="320" rx="6.6666665" ry="6.6666665" width="20" height="20" fill="rgb(0,0,0)" opacity="1.0" /><rect x="440" y="320" rx="6.6666665" ry="6.6666665" width="20" height="20" fill="rgb(0,0,0)" opacity="1.0" /><rect x="460" y="320" rx="6.6666665" ry="6.6666665" width="20" height="20" fill="rgb(0,0,0)" opacity="1.0" /><rect x="480" y="320" rx="6.6666665" ry="6.6666665" width="20" height="20" fill="rgb(0,0,0)" opacity="1.0" /><rect x="560" y="320" rx="6.6666665" ry="6.6666665" width="20" height="20" fill="rgb(0,0,0)" opacity="1.0" /><rect x="640" y="320" rx="6.6666665" ry="6.6666665" width="20" height="20" fill="rgb(0,0,0)" opacity="1.0" /><rect x="680" y="320" rx="6.6666665" ry="6.6666665" width="20" height="20" fill="rgb(0,0,0)" opacity="1.0" /><rect x="720" y="320" rx="6.6666665" ry="6.6666665" width="20" height="20" fill="rgb(0,0,0)" opacity="1.0" /><rect x="80" y="340" rx="6.6666665" ry="6.6666665" width="20" height="20" fill="rgb(0,0,0)" opacity="1.0" /><rect x="140" y="340" rx="6.6666665" ry="6.6666665" width="20" height="20" fill="rgb(0,0,0)" opacity="1.0" /><rect x="220" y="340" rx="6.6666665" ry="6.6666665" width="20" height="20" fill="rgb(0,0,0)" opacity="1.0" /><rect x="240" y="340" rx="6.6666665" ry="6.6666665" width="20" height="20" fill="rgb(0,0,0)" opacity="1.0" /><rect x="260" y="340" rx="6.6666665" ry="6.6666665" width="20" height="20" fill="rgb(0,0,0)" opacity="1.0" /><rect x="280" y="340" rx="6.6666665" ry="6.6666665" width="20" height="20" fill="rgb(0,0,0)" opacity="1.0" /><rect x="300" y="340" rx="6.6666665" ry="6.6666665" width="20" height="20" fill="rgb(0,0,0)" opacity="1.0" /><rect x="400" y="340" rx="6.6666665" ry="6.6666665" width="20" height="20" fill="rgb(0,0,0)" opacity="1.0" /><rect x="460" y="340" rx="6.6666665" ry="6.6666665" width="20" height="20" fill="rgb(0,0,0)" opacity="1.0" /><rect x="520" y="340" rx="6.6666665" ry="6.6666665" width="20" height="20" fill="rgb(0,0,0)" opacity="1.0" /><rect x="580" y="340" rx="6.6666665" ry="6.6666665" width="20" height="20" fill="rgb(0,0,0)" opacity="1.0" /><rect x="600" y="340" rx="6.6666665" ry="6.6666665" width="20" height="20" fill="rgb(0,0,0)" opacity="1.0" /><rect x="680" y="340" rx="6.6666665" ry="6.6666665" width="20" height="20" fill="rgb(0,0,0)" opacity="1.0" /><rect x="700" y="340" rx="6.6666665" ry="6.6666665" width="20" height="20" fill="rgb(0,0,0)" opacity="1.0" /><rect x="100" y="360" rx="6.6666665" ry="6.6666665" width="20" height="20" fill="rgb(0,0,0)" opacity="1.0" /><rect x="120" y="360" rx="6.6666665" ry="6.6666665" width="20" height="20" fill="rgb(0,0,0)" opacity="1.0" /><rect x="140" y="360" rx="6.6666665" ry="6.6666665" width="20" height="20" fill="rgb(0,0,0)" opacity="1.0" /><rect x="160" y="360" rx="6.6666665" ry="6.6666665" width="20" height="20" fill="rgb(0,0,0)" opacity="1.0" /><rect x="200" y="360" rx="6.6666665" ry="6.6666665" width="20" height="20" fill="rgb(0,0,0)" opacity="1.0" /><rect x="220" y="360" rx="6.6666665" ry="6.6666665" width="20" height="20" fill="rgb(0,0,0)" opacity="1.0" /><rect x="280" y="360" rx="6.6666665" ry="6.6666665" width="20" height="20" fill="rgb(0,0,0)" opacity="1.0" /><rect x="300" y="360" rx="6.6666665" ry="6.6666665" width="20" height="20" fill="rgb(0,0,0)" opacity="1.0" /><rect x="320" y="360" rx="6.6666665" ry="6.6666665" width="20" height="20" fill="rgb(0,0,0)" opacity="1.0" /><rect x="360" y="360" rx="6.6666665" ry="6.6666665" width="20" height="20" fill="rgb(0,0,0)" opacity="1.0" /><rect x="400" y="360" rx="6.6666665" ry="6.6666665" width="20" height="20" fill="rgb(0,0,0)" opacity="1.0" /><rect x="440" y="360" rx="6.6666665" ry="6.6666665" width="20" height="20" fill="rgb(0,0,0)" opacity="1.0" /><rect x="460" y="360" rx="6.6666665" ry="6.6666665" width="20" height="20" fill="rgb(0,0,0)" opacity="1.0" /><rect x="540" y="360" rx="6.6666665" ry="6.6666665" width="20" height="20" fill="rgb(0,0,0)" opacity="1.0" /><rect x="560" y="360" rx="6.6666665" ry="6.6666665" width="20" height="20" fill="rgb(0,0,0)" opacity="1.0" /><rect x="680" y="360" rx="6.6666665" ry="6.6666665" width="20" height="20" fill="rgb(0,0,0)" opacity="1.0" /><rect x="720" y="360" rx="6.6666665" ry="6.6666665" width="20" height="20" fill="rgb(0,0,0)" opacity="1.0" /><rect x="100" y="380" rx="6.6666665" ry="6.6666665" width="20" height="20" fill="rgb(0,0,0)" opacity="1.0" /><rect x="120" y="380" rx="6.6666665" ry="6.6666665" width="20" height="20" fill="rgb(0,0,0)" opacity="1.0" /><rect x="140" y="380" rx="6.6666665" ry="6.6666665" width="20" height="20" fill="rgb(0,0,0)" opacity="1.0" /><rect x="160" y="380" rx="6.6666665" ry="6.6666665" width="20" height="20" fill="rgb(0,0,0)" opacity="1.0" /><rect x="220" y="380" rx="6.6666665" ry="6.6666665" width="20" height="20" fill="rgb(0,0,0)" opacity="1.0" /><rect x="240" y="380" rx="6.6666665" ry="6.6666665" width="20" height="20" fill="rgb(0,0,0)" opacity="1.0" /><rect x="260" y="380" rx="6.6666665" ry="6.6666665" width="20" height="20" fill="rgb(0,0,0)" opacity="1.0" /><rect x="280" y="380" rx="6.6666665" ry="6.6666665" width="20" height="20" fill="rgb(0,0,0)" opacity="1.0" /><rect x="320" y="380" rx="6.6666665" ry="6.6666665" width="20" height="20" fill="rgb(0,0,0)" opacity="1.0" /><rect x="360" y="380" rx="6.6666665" ry="6.6666665" width="20" height="20" fill="rgb(0,0,0)" opacity="1.0" /><rect x="420" y="380" rx="6.6666665" ry="6.6666665" width="20" height="20" fill="rgb(0,0,0)" opacity="1.0" /><rect x="460" y="380" rx="6.6666665" ry="6.6666665" width="20" height="20" fill="rgb(0,0,0)" opacity="1.0" /><rect x="480" y="380" rx="6.6666665" ry="6.6666665" width="20" height="20" fill="rgb(0,0,0)" opacity="1.0" /><rect x="500" y="380" rx="6.6666665" ry="6.6666665" width="20" height="20" fill="rgb(0,0,0)" opacity="1.0" /><rect x="520" y="380" rx="6.6666665" ry="6.6666665" width="20" height="20" fill="rgb(0,0,0)" opacity="1.0" /><rect x="560" y="380" rx="6.6666665" ry="6.6666665" width="20" height="20" fill="rgb(0,0,0)" opacity="1.0" /><rect x="600" y="380" rx="6.6666665" ry="6.6666665" width="20" height="20" fill="rgb(0,0,0)" opacity="1.0" /><rect x="640" y="380" rx="6.6666665" ry="6.6666665" width="20" height="20" fill="rgb(0,0,0)" opacity="1.0" /><rect x="720" y="380" rx="6.6666665" ry="6.6666665" width="20" height="20" fill="rgb(0,0,0)" opacity="1.0" /><rect x="80" y="400" rx="6.6666665" ry="6.6666665" width="20" height="20" fill="rgb(0,0,0)" opacity="1.0" /><rect x="100" y="400" rx="6.6666665" ry="6.6666665" width="20" height="20" fill="rgb(0,0,0)" opacity="1.0" /><rect x="160" y="400" rx="6.6666665" ry="6.6666665" width="20" height="20" fill="rgb(0,0,0)" opacity="1.0" /><rect x="180" y="400" rx="6.6666665" ry="6.6666665" width="20" height="20" fill="rgb(0,0,0)" opacity="1.0" /><rect x="200" y="400" rx="6.6666665" ry="6.6666665" width="20" height="20" fill="rgb(0,0,0)" opacity="1.0" /><rect x="240" y="400" rx="6.6666665" ry="6.6666665" width="20" height="20" fill="rgb(0,0,0)" opacity="1.0" /><rect x="260" y="400" rx="6.6666665" ry="6.6666665" width="20" height="20" fill="rgb(0,0,0)" opacity="1.0" /><rect x="300" y="400" rx="6.6666665" ry="6.6666665" width="20" height="20" fill="rgb(0,0,0)" opacity="1.0" /><rect x="320" y="400" rx="6.6666665" ry="6.6666665" width="20" height="20" fill="rgb(0,0,0)" opacity="1.0" /><rect x="380" y="400" rx="6.6666665" ry="6.6666665" width="20" height="20" fill="rgb(0,0,0)" opacity="1.0" /><rect x="400" y="400" rx="6.6666665" ry="6.6666665" width="20" height="20" fill="rgb(0,0,0)" opacity="1.0" /><rect x="500" y="400" rx="6.6666665" ry="6.6666665" width="20" height="20" fill="rgb(0,0,0)" opacity="1.0" /><rect x="620" y="400" rx="6.6666665" ry="6.6666665" width="20" height="20" fill="rgb(0,0,0)" opacity="1.0" /><rect x="640" y="400" rx="6.6666665" ry="6.6666665" width="20" height="20" fill="rgb(0,0,0)" opacity="1.0" /><rect x="660" y="400" rx="6.6666665" ry="6.6666665" width="20" height="20" fill="rgb(0,0,0)" opacity="1.0" /><rect x="680" y="400" rx="6.6666665" ry="6.6666665" width="20" height="20" fill="rgb(0,0,0)" opacity="1.0" /><rect x="700" y="400" rx="6.6666665" ry="6.6666665" width="20" height="20" fill="rgb(0,0,0)" opacity="1.0" /><rect x="720" y="400" rx="6.6666665" ry="6.6666665" width="20" height="20" fill="rgb(0,0,0)" opacity="1.0" /><rect x="80" y="420" rx="6.6666665" ry="6.6666665" width="20" height="20" fill="rgb(0,0,0)" opacity="1.0" /><rect x="120" y="420" rx="6.6666665" ry="6.6666665" width="20" height="20" fill="rgb(0,0,0)" opacity="1.0" /><rect x="220" y="420" rx="6.6666665" ry="6.6666665" width="20" height="20" fill="rgb(0,0,0)" opacity="1.0" /><rect x="320" y="420" rx="6.6666665" ry="6.6666665" width="20" height="20" fill="rgb(0,0,0)" opacity="1.0" /><rect x="340" y="420" rx="6.6666665" ry="6.6666665" width="20" height="20" fill="rgb(0,0,0)" opacity="1.0" /><rect x="380" y="420" rx="6.6666665" ry="6.6666665" width="20" height="20" fill="rgb(0,0,0)" opacity="1.0" /><rect x="420" y="420" rx="6.6666665" ry="6.6666665" width="20" height="20" fill="rgb(0,0,0)" opacity="1.0" /><rect x="460" y="420" rx="6.6666665" ry="6.6666665" width="20" height="20" fill="rgb(0,0,0)" opacity="1.0" /><rect x="500" y="420" rx="6.6666665" ry="6.6666665" width="20" height="20" fill="rgb(0,0,0)" opacity="1.0" /><rect x="560" y="420" rx="6.6666665" ry="6.6666665" width="20" height="20" fill="rgb(0,0,0)" opacity="1.0" /><rect x="660" y="420" rx="6.6666665" ry="6.6666665" width="20" height="20" fill="rgb(0,0,0)" opacity="1.0" /><rect x="680" y="420" rx="6.6666665" ry="6.6666665" width="20" height="20" fill="rgb(0,0,0)" opacity="1.0" /><rect x="700" y="420" rx="6.6666665" ry="6.6666665" width="20" height="20" fill="rgb(0,0,0)" opacity="1.0" /><rect x="160" y="440" rx="6.6666665" ry="6.6666665" width="20" height="20" fill="rgb(0,0,0)" opacity="1.0" /><rect x="200" y="440" rx="6.6666665" ry="6.6666665" width="20" height="20" fill="rgb(0,0,0)" opacity="1.0" /><rect x="280" y="440" rx="6.6666665" ry="6.6666665" width="20" height="20" fill="rgb(0,0,0)" opacity="1.0" /><rect x="380" y="440" rx="6.6666665" ry="6.6666665" width="20" height="20" fill="rgb(0,0,0)" opacity="1.0" /><rect x="440" y="440" rx="6.6666665" ry="6.6666665" width="20" height="20" fill="rgb(0,0,0)" opacity="1.0" /><rect x="460" y="440" rx="6.6666665" ry="6.6666665" width="20" height="20" fill="rgb(0,0,0)" opacity="1.0" /><rect x="680" y="440" rx="6.6666665" ry="6.6666665" width="20" height="20" fill="rgb(0,0,0)" opacity="1.0" /><rect x="720" y="440" rx="6.6666665" ry="6.6666665" width="20" height="20" fill="rgb(0,0,0)" opacity="1.0" /><rect x="80" y="460" rx="6.6666665" ry="6.6666665" width="20" height="20" fill="rgb(0,0,0)" opacity="1.0" /><rect x="100" y="460" rx="6.6666665" ry="6.6666665" width="20" height="20" fill="rgb(0,0,0)" opacity="1.0" /><rect x="160" y="460" rx="6.6666665" ry="6.6666665" width="20" height="20" fill="rgb(0,0,0)" opacity="1.0" /><rect x="220" y="460" rx="6.6666665" ry="6.6666665" width="20" height="20" fill="rgb(0,0,0)" opacity="1.0" /><rect x="260" y="460" rx="6.6666665" ry="6.6666665" width="20" height="20" fill="rgb(0,0,0)" opacity="1.0" /><rect x="280" y="460" rx="6.6666665" ry="6.6666665" width="20" height="20" fill="rgb(0,0,0)" opacity="1.0" /><rect x="300" y="460" rx="6.6666665" ry="6.6666665" width="20" height="20" fill="rgb(0,0,0)" opacity="1.0" /><rect x="320" y="460" rx="6.6666665" ry="6.6666665" width="20" height="20" fill="rgb(0,0,0)" opacity="1.0" /><rect x="460" y="460" rx="6.6666665" ry="6.6666665" width="20" height="20" fill="rgb(0,0,0)" opacity="1.0" /><rect x="480" y="460" rx="6.6666665" ry="6.6666665" width="20" height="20" fill="rgb(0,0,0)" opacity="1.0" /><rect x="520" y="460" rx="6.6666665" ry="6.6666665" width="20" height="20" fill="rgb(0,0,0)" opacity="1.0" /><rect x="560" y="460" rx="6.6666665" ry="6.6666665" width="20" height="20" fill="rgb(0,0,0)" opacity="1.0" /><rect x="600" y="460" rx="6.6666665" ry="6.6666665" width="20" height="20" fill="rgb(0,0,0)" opacity="1.0" /><rect x="640" y="460" rx="6.6666665" ry="6.6666665" width="20" height="20" fill="rgb(0,0,0)" opacity="1.0" /><rect x="700" y="460" rx="6.6666665" ry="6.6666665" width="20" height="20" fill="rgb(0,0,0)" opacity="1.0" /><rect x="100" y="480" rx="6.6666665" ry="6.6666665" width="20" height="20" fill="rgb(0,0,0)" opacity="1.0" /><rect x="140" y="480" rx="6.6666665" ry="6.6666665" width="20" height="20" fill="rgb(0,0,0)" opacity="1.0" /><rect x="160" y="480" rx="6.6666665" ry="6.6666665" width="20" height="20" fill="rgb(0,0,0)" opacity="1.0" /><rect x="200" y="480" rx="6.6666665" ry="6.6666665" width="20" height="20" fill="rgb(0,0,0)" opacity="1.0" /><rect x="260" y="480" rx="6.6666665" ry="6.6666665" width="20" height="20" fill="rgb(0,0,0)" opacity="1.0" /><rect x="280" y="480" rx="6.6666665" ry="6.6666665" width="20" height="20" fill="rgb(0,0,0)" opacity="1.0" /><rect x="300" y="480" rx="6.6666665" ry="6.6666665" width="20" height="20" fill="rgb(0,0,0)" opacity="1.0" /><rect x="340" y="480" rx="6.6666665" ry="6.6666665" width="20" height="20" fill="rgb(0,0,0)" opacity="1.0" /><rect x="360" y="480" rx="6.6666665" ry="6.6666665" width="20" height="20" fill="rgb(0,0,0)" opacity="1.0" /><rect x="400" y="480" rx="6.6666665" ry="6.6666665" width="20" height="20" fill="rgb(0,0,0)" opacity="1.0" /><rect x="460" y="480" rx="6.6666665" ry="6.6666665" width="20" height="20" fill="rgb(0,0,0)" opacity="1.0" /><rect x="520" y="480" rx="6.6666665" ry="6.6666665" width="20" height="20" fill="rgb(0,0,0)" opacity="1.0" /><rect x="620" y="480" rx="6.6666665" ry="6.6666665" width="20" height="20" fill="rgb(0,0,0)" opacity="1.0" /><rect x="680" y="480" rx="6.6666665" ry="6.6666665" width="20" height="20" fill="rgb(0,0,0)" opacity="1.0" /><rect x="720" y="480" rx="6.6666665" ry="6.6666665" width="20" height="20" fill="rgb(0,0,0)" opacity="1.0" /><rect x="80" y="500" rx="6.6666665" ry="6.6666665" width="20" height="20" fill="rgb(0,0,0)" opacity="1.0" /><rect x="160" y="500" rx="6.6666665" ry="6.6666665" width="20" height="20" fill="rgb(0,0,0)" opacity="1.0" /><rect x="220" y="500" rx="6.6666665" ry="6.6666665" width="20" height="20" fill="rgb(0,0,0)" opacity="1.0" /><rect x="280" y="500" rx="6.6666665" ry="6.6666665" width="20" height="20" fill="rgb(0,0,0)" opacity="1.0" /><rect x="360" y="500" rx="6.6666665" ry="6.6666665" width="20" height="20" fill="rgb(0,0,0)" opacity="1.0" /><rect x="440" y="500" rx="6.6666665" ry="6.6666665" width="20" height="20" fill="rgb(0,0,0)" opacity="1.0" /><rect x="460" y="500" rx="6.6666665" ry="6.6666665" width="20" height="20" fill="rgb(0,0,0)" opacity="1.0" /><rect x="480" y="500" rx="6.6666665" ry="6.6666665" width="20" height="20" fill="rgb(0,0,0)" opacity="1.0" /><rect x="560" y="500" rx="6.6666665" ry="6.6666665" width="20" height="20" fill="rgb(0,0,0)" opacity="1.0" /><rect x="580" y="500" rx="6.6666665" ry="6.6666665" width="20" height="20" fill="rgb(0,0,0)" opacity="1.0" /><rect x="660" y="500" rx="6.6666665" ry="6.6666665" width="20" height="20" fill="rgb(0,0,0)" opacity="1.0" /><rect x="680" y="500" rx="6.6666665" ry="6.6666665" width="20" height="20" fill="rgb(0,0,0)" opacity="1.0" /><rect x="700" y="500" rx="6.6666665" ry="6.6666665" width="20" height="20" fill="rgb(0,0,0)" opacity="1.0" /><rect x="720" y="500" rx="6.6666665" ry="6.6666665" width="20" height="20" fill="rgb(0,0,0)" opacity="1.0" /><rect x="140" y="520" rx="6.6666665" ry="6.6666665" width="20" height="20" fill="rgb(0,0,0)" opacity="1.0" /><rect x="160" y="520" rx="6.6666665" ry="6.6666665" width="20" height="20" fill="rgb(0,0,0)" opacity="1.0" /><rect x="180" y="520" rx="6.6666665" ry="6.6666665" width="20" height="20" fill="rgb(0,0,0)" opacity="1.0" /><rect x="200" y="520" rx="6.6666665" ry="6.6666665" width="20" height="20" fill="rgb(0,0,0)" opacity="1.0" /><rect x="260" y="520" rx="6.6666665" ry="6.6666665" width="20" height="20" fill="rgb(0,0,0)" opacity="1.0" /><rect x="280" y="520" rx="6.6666665" ry="6.6666665" width="20" height="20" fill="rgb(0,0,0)" opacity="1.0" /><rect x="340" y="520" rx="6.6666665" ry="6.6666665" width="20" height="20" fill="rgb(0,0,0)" opacity="1.0" /><rect x="380" y="520" rx="6.6666665" ry="6.6666665" width="20" height="20" fill="rgb(0,0,0)" opacity="1.0" /><rect x="440" y="520" rx="6.6666665" ry="6.6666665" width="20" height="20" fill="rgb(0,0,0)" opacity="1.0" /><rect x="480" y="520" rx="6.6666665" ry="6.6666665" width="20" height="20" fill="rgb(0,0,0)" opacity="1.0" /><rect x="520" y="520" rx="6.6666665" ry="6.6666665" width="20" height="20" fill="rgb(0,0,0)" opacity="1.0" /><rect x="620" y="520" rx="6.6666665" ry="6.6666665" width="20" height="20" fill="rgb(0,0,0)" opacity="1.0" /><rect x="700" y="520" rx="6.6666665" ry="6.6666665" width="20" height="20" fill="rgb(0,0,0)" opacity="1.0" /><rect x="180" y="540" rx="6.6666665" ry="6.6666665" width="20" height="20" fill="rgb(0,0,0)" opacity="1.0" /><rect x="240" y="540" rx="6.6666665" ry="6.6666665" width="20" height="20" fill="rgb(0,0,0)" opacity="1.0" /><rect x="260" y="540" rx="6.6666665" ry="6.6666665" width="20" height="20" fill="rgb(0,0,0)" opacity="1.0" /><rect x="300" y="540" rx="6.6666665" ry="6.6666665" width="20" height="20" fill="rgb(0,0,0)" opacity="1.0" /><rect x="360" y="540" rx="6.6666665" ry="6.6666665" width="20" height="20" fill="rgb(0,0,0)" opacity="1.0" /><rect x="380" y="540" rx="6.6666665" ry="6.6666665" width="20" height="20" fill="rgb(0,0,0)" opacity="1.0" /><rect x="400" y="540" rx="6.6666665" ry="6.6666665" width="20" height="20" fill="rgb(0,0,0)" opacity="1.0" /><rect x="420" y="540" rx="6.6666665" ry="6.6666665" width="20" height="20" fill="rgb(0,0,0)" opacity="1.0" /><rect x="520" y="540" rx="6.6666665" ry="6.6666665" width="20" height="20" fill="rgb(0,0,0)" opacity="1.0" /><rect x="560" y="540" rx="6.6666665" ry="6.6666665" width="20" height="20" fill="rgb(0,0,0)" opacity="1.0" /><rect x="600" y="540" rx="6.6666665" ry="6.6666665" width="20" height="20" fill="rgb(0,0,0)" opacity="1.0" /><rect x="640" y="540" rx="6.6666665" ry="6.6666665" width="20" height="20" fill="rgb(0,0,0)" opacity="1.0" /><rect x="680" y="540" rx="6.6666665" ry="6.6666665" width="20" height="20" fill="rgb(0,0,0)" opacity="1.0" /><rect x="720" y="540" rx="6.6666665" ry="6.6666665" width="20" height="20" fill="rgb(0,0,0)" opacity="1.0" /><rect x="80" y="560" rx="6.6666665" ry="6.6666665" width="20" height="20" fill="rgb(0,0,0)" opacity="1.0" /><rect x="100" y="560" rx="6.6666665" ry="6.6666665" width="20" height="20" fill="rgb(0,0,0)" opacity="1.0" /><rect x="160" y="560" rx="6.6666665" ry="6.6666665" width="20" height="20" fill="rgb(0,0,0)" opacity="1.0" /><rect x="200" y="560" rx="6.6666665" ry="6.6666665" width="20" height="20" fill="rgb(0,0,0)" opacity="1.0" /><rect x="220" y="560" rx="6.6666665" ry="6.6666665" width="20" height="20" fill="rgb(0,0,0)" opacity="1.0" /><rect x="240" y="560" rx="6.6666665" ry="6.6666665" width="20" height="20" fill="rgb(0,0,0)" opacity="1.0" /><rect x="260" y="560" rx="6.6666665" ry="6.6666665" width="20" height="20" fill="rgb(0,0,0)" opacity="1.0" /><rect x="300" y="560" rx="6.6666665" ry="6.6666665" width="20" height="20" fill="rgb(0,0,0)" opacity="1.0" /><rect x="320" y="560" rx="6.6666665" ry="6.6666665" width="20" height="20" fill="rgb(0,0,0)" opacity="1.0" /><rect x="340" y="560" rx="6.6666665" ry="6.6666665" width="20" height="20" fill="rgb(0,0,0)" opacity="1.0" /><rect x="360" y="560" rx="6.6666665" ry="6.6666665" width="20" height="20" fill="rgb(0,0,0)" opacity="1.0" /><rect x="400" y="560" rx="6.6666665" ry="6.6666665" width="20" height="20" fill="rgb(0,0,0)" opacity="1.0" /><rect x="460" y="560" rx="6.6666665" ry="6.6666665" width="20" height="20" fill="rgb(0,0,0)" opacity="1.0" /><rect x="500" y="560" rx="6.6666665" ry="6.6666665" width="20" height="20" fill="rgb(0,0,0)" opacity="1.0" /><rect x="520" y="560" rx="6.6666665" ry="6.6666665" width="20" height="20" fill="rgb(0,0,0)" opacity="1.0" /><rect x="560" y="560" rx="6.6666665" ry="6.6666665" width="20" height="20" fill="rgb(0,0,0)" opacity="1.0" /><rect x="580" y="560" rx="6.6666665" ry="6.6666665" width="20" height="20" fill="rgb(0,0,0)" opacity="1.0" /><rect x="600" y="560" rx="6.6666665" ry="6.6666665" width="20" height="20" fill="rgb(0,0,0)" opacity="1.0" /><rect x="620" y="560" rx="6.6666665" ry="6.6666665" width="20" height="20" fill="rgb(0,0,0)" opacity="1.0" /><rect x="640" y="560" rx="6.6666665" ry="6.6666665" width="20" height="20" fill="rgb(0,0,0)" opacity="1.0" /><rect x="660" y="560" rx="6.6666665" ry="6.6666665" width="20" height="20" fill="rgb(0,0,0)" opacity="1.0" /><rect x="700" y="560" rx="6.6666665" ry="6.6666665" width="20" height="20" fill="rgb(0,0,0)" opacity="1.0" /><rect x="240" y="580" rx="6.6666665" ry="6.6666665" width="20" height="20" fill="rgb(0,0,0)" opacity="1.0" /><rect x="260" y="580" rx="6.6666665" ry="6.6666665" width="20" height="20" fill="rgb(0,0,0)" opacity="1.0" /><rect x="320" y="580" rx="6.6666665" ry="6.6666665" width="20" height="20" fill="rgb(0,0,0)" opacity="1.0" /><rect x="380" y="580" rx="6.6666665" ry="6.6666665" width="20" height="20" fill="rgb(0,0,0)" opacity="1.0" /><rect x="400" y="580" rx="6.6666665" ry="6.6666665" width="20" height="20" fill="rgb(0,0,0)" opacity="1.0" /><rect x="440" y="580" rx="6.6666665" ry="6.6666665" width="20" height="20" fill="rgb(0,0,0)" opacity="1.0" /><rect x="540" y="580" rx="6.6666665" ry="6.6666665" width="20" height="20" fill="rgb(0,0,0)" opacity="1.0" /><rect x="560" y="580" rx="6.6666665" ry="6.6666665" width="20" height="20" fill="rgb(0,0,0)" opacity="1.0" /><rect x="640" y="580" rx="6.6666665" ry="6.6666665" width="20" height="20" fill="rgb(0,0,0)" opacity="1.0" /><rect x="660" y="580" rx="6.6666665" ry="6.6666665" width="20" height="20" fill="rgb(0,0,0)" opacity="1.0" /><rect x="680" y="580" rx="6.6666665" ry="6.6666665" width="20" height="20" fill="rgb(0,0,0)" opacity="1.0" /><rect x="240" y="600" rx="6.6666665" ry="6.6666665" width="20" height="20" fill="rgb(0,0,0)" opacity="1.0" /><rect x="260" y="600" rx="6.6666665" ry="6.6666665" width="20" height="20" fill="rgb(0,0,0)" opacity="1.0" /><rect x="280" y="600" rx="6.6666665" ry="6.6666665" width="20" height="20" fill="rgb(0,0,0)" opacity="1.0" /><rect x="320" y="600" rx="6.6666665" ry="6.6666665" width="20" height="20" fill="rgb(0,0,0)" opacity="1.0" /><rect x="340" y="600" rx="6.6666665" ry="6.6666665" width="20" height="20" fill="rgb(0,0,0)" opacity="1.0" /><rect x="400" y="600" rx="6.6666665" ry="6.6666665" width="20" height="20" fill="rgb(0,0,0)" opacity="1.0" /><rect x="420" y="600" rx="6.6666665" ry="6.6666665" width="20" height="20" fill="rgb(0,0,0)" opacity="1.0" /><rect x="460" y="600" rx="6.6666665" ry="6.6666665" width="20" height="20" fill="rgb(0,0,0)" opacity="1.0" /><rect x="500" y="600" rx="6.6666665" ry="6.6666665" width="20" height="20" fill="rgb(0,0,0)" opacity="1.0" /><rect x="520" y="600" rx="6.6666665" ry="6.6666665" width="20" height="20" fill="rgb(0,0,0)" opacity="1.0" /><rect x="560" y="600" rx="6.6666665" ry="6.6666665" width="20" height="20" fill="rgb(0,0,0)" opacity="1.0" /><rect x="600" y="600" rx="6.6666665" ry="6.6666665" width="20" height="20" fill="rgb(0,0,0)" opacity="1.0" /><rect x="640" y="600" rx="6.6666665" ry="6.6666665" width="20" height="20" fill="rgb(0,0,0)" opacity="1.0" /><rect x="680" y="600" rx="6.6666665" ry="6.6666665" width="20" height="20" fill="rgb(0,0,0)" opacity="1.0" /><rect x="700" y="600" rx="6.6666665" ry="6.6666665" width="20" height="20" fill="rgb(0,0,0)" opacity="1.0" /><rect x="720" y="600" rx="6.6666665" ry="6.6666665" width="20" height="20" fill="rgb(0,0,0)" opacity="1.0" /><rect x="260" y="620" rx="6.6666665" ry="6.6666665" width="20" height="20" fill="rgb(0,0,0)" opacity="1.0" /><rect x="280" y="620" rx="6.6666665" ry="6.6666665" width="20" height="20" fill="rgb(0,0,0)" opacity="1.0" /><rect x="300" y="620" rx="6.6666665" ry="6.6666665" width="20" height="20" fill="rgb(0,0,0)" opacity="1.0" /><rect x="420" y="620" rx="6.6666665" ry="6.6666665" width="20" height="20" fill="rgb(0,0,0)" opacity="1.0" /><rect x="440" y="620" rx="6.6666665" ry="6.6666665" width="20" height="20" fill="rgb(0,0,0)" opacity="1.0" /><rect x="460" y="620" rx="6.6666665" ry="6.6666665" width="20" height="20" fill="rgb(0,0,0)" opacity="1.0" /><rect x="480" y="620" rx="6.6666665" ry="6.6666665" width="20" height="20" fill="rgb(0,0,0)" opacity="1.0" /><rect x="500" y="620" rx="6.6666665" ry="6.6666665" width="20" height="20" fill="rgb(0,0,0)" opacity="1.0" /><rect x="560" y="620" rx="6.6666665" ry="6.6666665" width="20" height="20" fill="rgb(0,0,0)" opacity="1.0" /><rect x="640" y="620" rx="6.6666665" ry="6.6666665" width="20" height="20" fill="rgb(0,0,0)" opacity="1.0" /><rect x="720" y="620" rx="6.6666665" ry="6.6666665" width="20" height="20" fill="rgb(0,0,0)" opacity="1.0" /><rect x="240" y="640" rx="6.6666665" ry="6.6666665" width="20" height="20" fill="rgb(0,0,0)" opacity="1.0" /><rect x="280" y="640" rx="6.6666665" ry="6.6666665" width="20" height="20" fill="rgb(0,0,0)" opacity="1.0" /><rect x="360" y="640" rx="6.6666665" ry="6.6666665" width="20" height="20" fill="rgb(0,0,0)" opacity="1.0" /><rect x="440" y="640" rx="6.6666665" ry="6.6666665" width="20" height="20" fill="rgb(0,0,0)" opacity="1.0" /><rect x="460" y="640" rx="6.6666665" ry="6.6666665" width="20" height="20" fill="rgb(0,0,0)" opacity="1.0" /><rect x="480" y="640" rx="6.6666665" ry="6.6666665" width="20" height="20" fill="rgb(0,0,0)" opacity="1.0" /><rect x="560" y="640" rx="6.6666665" ry="6.6666665" width="20" height="20" fill="rgb(0,0,0)" opacity="1.0" /><rect x="580" y="640" rx="6.6666665" ry="6.6666665" width="20" height="20" fill="rgb(0,0,0)" opacity="1.0" /><rect x="600" y="640" rx="6.6666665" ry="6.6666665" width="20" height="20" fill="rgb(0,0,0)" opacity="1.0" /><rect x="620" y="640" rx="6.6666665" ry="6.6666665" width="20" height="20" fill="rgb(0,0,0)" opacity="1.0" /><rect x="640" y="640" rx="6.6666665" ry="6.6666665" width="20" height="20" fill="rgb(0,0,0)" opacity="1.0" /><rect x="680" y="640" rx="6.6666665" ry="6.6666665" width="20" height="20" fill="rgb(0,0,0)" opacity="1.0" /><rect x="700" y="640" rx="6.6666665" ry="6.6666665" width="20" height="20" fill="rgb(0,0,0)" opacity="1.0" /><rect x="720" y="640" rx="6.6666665" ry="6.6666665" width="20" height="20" fill="rgb(0,0,0)" opacity="1.0" /><rect x="280" y="660" rx="6.6666665" ry="6.6666665" width="20" height="20" fill="rgb(0,0,0)" opacity="1.0" /><rect x="320" y="660" rx="6.6666665" ry="6.6666665" width="20" height="20" fill="rgb(0,0,0)" opacity="1.0" /><rect x="400" y="660" rx="6.6666665" ry="6.6666665" width="20" height="20" fill="rgb(0,0,0)" opacity="1.0" /><rect x="460" y="660" rx="6.6666665" ry="6.6666665" width="20" height="20" fill="rgb(0,0,0)" opacity="1.0" /><rect x="520" y="660" rx="6.6666665" ry="6.6666665" width="20" height="20" fill="rgb(0,0,0)" opacity="1.0" /><rect x="660" y="660" rx="6.6666665" ry="6.6666665" width="20" height="20" fill="rgb(0,0,0)" opacity="1.0" /><rect x="680" y="660" rx="6.6666665" ry="6.6666665" width="20" height="20" fill="rgb(0,0,0)" opacity="1.0" /><rect x="720" y="660" rx="6.6666665" ry="6.6666665" width="20" height="20" fill="rgb(0,0,0)" opacity="1.0" /><rect x="260" y="680" rx="6.6666665" ry="6.6666665" width="20" height="20" fill="rgb(0,0,0)" opacity="1.0" /><rect x="340" y="680" rx="6.6666665" ry="6.6666665" width="20" height="20" fill="rgb(0,0,0)" opacity="1.0" /><rect x="400" y="680" rx="6.6666665" ry="6.6666665" width="20" height="20" fill="rgb(0,0,0)" opacity="1.0" /><rect x="420" y="680" rx="6.6666665" ry="6.6666665" width="20" height="20" fill="rgb(0,0,0)" opacity="1.0" /><rect x="440" y="680" rx="6.6666665" ry="6.6666665" width="20" height="20" fill="rgb(0,0,0)" opacity="1.0" /><rect x="460" y="680" rx="6.6666665" ry="6.6666665" width="20" height="20" fill="rgb(0,0,0)" opacity="1.0" /><rect x="580" y="680" rx="6.6666665" ry="6.6666665" width="20" height="20" fill="rgb(0,0,0)" opacity="1.0" /><rect x="600" y="680" rx="6.6666665" ry="6.6666665" width="20" height="20" fill="rgb(0,0,0)" opacity="1.0" /><rect x="620" y="680" rx="6.6666665" ry="6.6666665" width="20" height="20" fill="rgb(0,0,0)" opacity="1.0" /><rect x="640" y="680" rx="6.6666665" ry="6.6666665" width="20" height="20" fill="rgb(0,0,0)" opacity="1.0" /><rect x="660" y="680" rx="6.6666665" ry="6.6666665" width="20" height="20" fill="rgb(0,0,0)" opacity="1.0" /><rect x="260" y="700" rx="6.6666665" ry="6.6666665" width="20" height="20" fill="rgb(0,0,0)" opacity="1.0" /><rect x="280" y="700" rx="6.6666665" ry="6.6666665" width="20" height="20" fill="rgb(0,0,0)" opacity="1.0" /><rect x="300" y="700" rx="6.6666665" ry="6.6666665" width="20" height="20" fill="rgb(0,0,0)" opacity="1.0" /><rect x="360" y="700" rx="6.6666665" ry="6.6666665" width="20" height="20" fill="rgb(0,0,0)" opacity="1.0" /><rect x="460" y="700" rx="6.6666665" ry="6.6666665" width="20" height="20" fill="rgb(0,0,0)" opacity="1.0" /><rect x="480" y="700" rx="6.6666665" ry="6.6666665" width="20" height="20" fill="rgb(0,0,0)" opacity="1.0" /><rect x="500" y="700" rx="6.6666665" ry="6.6666665" width="20" height="20" fill="rgb(0,0,0)" opacity="1.0" /><rect x="520" y="700" rx="6.6666665" ry="6.6666665" width="20" height="20" fill="rgb(0,0,0)" opacity="1.0" /><rect x="560" y="700" rx="6.6666665" ry="6.6666665" width="20" height="20" fill="rgb(0,0,0)" opacity="1.0" /><rect x="580" y="700" rx="6.6666665" ry="6.6666665" width="20" height="20" fill="rgb(0,0,0)" opacity="1.0" /><rect x="660" y="700" rx="6.6666665" ry="6.6666665" width="20" height="20" fill="rgb(0,0,0)" opacity="1.0" /><rect x="680" y="700" rx="6.6666665" ry="6.6666665" width="20" height="20" fill="rgb(0,0,0)" opacity="1.0" /><rect x="700" y="700" rx="6.6666665" ry="6.6666665" width="20" height="20" fill="rgb(0,0,0)" opacity="1.0" /><rect x="720" y="700" rx="6.6666665" ry="6.6666665" width="20" height="20" fill="rgb(0,0,0)" opacity="1.0" /><rect x="240" y="720" rx="6.6666665" ry="6.6666665" width="20" height="20" fill="rgb(0,0,0)" opacity="1.0" /><rect x="260" y="720" rx="6.6666665" ry="6.6666665" width="20" height="20" fill="rgb(0,0,0)" opacity="1.0" /><rect x="280" y="720" rx="6.6666665" ry="6.6666665" width="20" height="20" fill="rgb(0,0,0)" opacity="1.0" /><rect x="340" y="720" rx="6.6666665" ry="6.6666665" width="20" height="20" fill="rgb(0,0,0)" opacity="1.0" /><rect x="360" y="720" rx="6.6666665" ry="6.6666665" width="20" height="20" fill="rgb(0,0,0)" opacity="1.0" /><rect x="380" y="720" rx="6.6666665" ry="6.6666665" width="20" height="20" fill="rgb(0,0,0)" opacity="1.0" /><rect x="440" y="720" rx="6.6666665" ry="6.6666665" width="20" height="20" fill="rgb(0,0,0)" opacity="1.0" /><rect x="500" y="720" rx="6.6666665" ry="6.6666665" width="20" height="20" fill="rgb(0,0,0)" opacity="1.0" /><rect x="540" y="720" rx="6.6666665" ry="6.6666665" width="20" height="20" fill="rgb(0,0,0)" opacity="1.0" /><rect x="560" y="720" rx="6.6666665" ry="6.6666665" width="20" height="20" fill="rgb(0,0,0)" opacity="1.0" /><rect x="580" y="720" rx="6.6666665" ry="6.6666665" width="20" height="20" fill="rgb(0,0,0)" opacity="1.0" /><rect x="620" y="720" rx="6.6666665" ry="6.6666665" width="20" height="20" fill="rgb(0,0,0)" opacity="1.0" /><rect x="660" y="720" rx="6.6666665" ry="6.6666665" width="20" height="20" fill="rgb(0,0,0)" opacity="1.0" /><rect x="720" y="720" rx="6.6666665" ry="6.6666665" width="20" height="20" fill="rgb(0,0,0)" opacity="1.0" /><path d="M80 80 H192.0 A28.0 28.0 0 0 1 220 108.0 V192.0 A28.0 28.0 0 0 1 192.0 220 H108.0 A28.0 28.0 0 0 1 80 192.0 V108.0 A28.0 28.0 0 0 1 108 80 Z M100.0 100.0 H180.0 A20.0 20.0 0 0 1 200.0 120.0 V180.0 A20.0 20.0 0 0 1 180.0 200.0 H120.0 A20.0 20.0 0 0 1 100.0 180.0 V120.0 A20.0 20.0 0 0 1 120.0 100.0 Z" fill-rule="evenodd" fill="rgb(0,0,0)" opacity="1.0" /><path d="M600 80 H712.0 A28.0 28.0 0 0 1 740 108.0 V192.0 A28.0 28.0 0 0 1 712.0 220 H628.0 A28.0 28.0 0 0 1 600 192.0 V108.0 A28.0 28.0 0 0 1 628 80 Z M620.0 100.0 H700.0 A20.0 20.0 0 0 1 720.0 120.0 V180.0 A20.0 20.0 0 0 1 700.0 200.0 H640.0 A20.0 20.0 0 0 1 620.0 180.0 V120.0 A20.0 20.0 0 0 1 640.0 100.0 Z" fill-rule="evenodd" fill="rgb(0,0,0)" opacity="1.0" /><rect x="120" y="120" rx="20.0" ry="20.0" width="60" height="60" fill="rgb(0,0,0)" opacity="1.0" /><rect x="640" y="120" rx="20.0" ry="20.0" width="60" height="60" fill="rgb(0,0,0)" opacity="1.0" /><path d="M80 600 H192.0 A28.0 28.0 0 0 1 220 628.0 V712.0 A28.0 28.0 0 0 1 192.0 740 H108.0 A28.0 28.0 0 0 1 80 712.0 V628.0 A28.0 28.0 0 0 1 108 600 Z M100.0 620.0 H180.0 A20.0 20.0 0 0 1 200.0 640.0 V700.0 A20.0 20.0 0 0 1 180.0 720.0 H120.0 A20.0 20.0 0 0 1 100.0 700.0 V640.0 A20.0 20.0 0 0 1 120.0 620.0 Z" fill-rule="evenodd" fill="rgb(0,0,0)" opacity="1.0" /><rect x="120" y="640" rx="20.0" ry="20.0" width="60" height="60" fill="rgb(0,0,0)" opacity="1.0" /></svg></g></svg>