<?xml version="1.0" encoding="utf-8" standalone="no"?>
<!DOCTYPE svg PUBLIC "-//W3C//DTD SVG 1.1//EN"
  "http://www.w3.org/Graphics/SVG/1.1/DTD/svg11.dtd">
<svg xmlns:xlink="http://www.w3.org/1999/xlink" width="695.508281pt" height="365.301328pt" viewBox="0 0 695.508281 365.301328" xmlns="http://www.w3.org/2000/svg" version="1.1">
 <metadata>
  <rdf:RDF xmlns:dc="http://purl.org/dc/elements/1.1/" xmlns:cc="http://creativecommons.org/ns#" xmlns:rdf="http://www.w3.org/1999/02/22-rdf-syntax-ns#">
   <cc:Work>
    <dc:type rdf:resource="http://purl.org/dc/dcmitype/StillImage"/>
    <dc:date>2025-07-22T19:30:19.650900</dc:date>
    <dc:format>image/svg+xml</dc:format>
    <dc:creator>
     <cc:Agent>
      <dc:title>Matplotlib v3.10.1, https://matplotlib.org/</dc:title>
     </cc:Agent>
    </dc:creator>
   </cc:Work>
  </rdf:RDF>
 </metadata>
 <defs>
  <style type="text/css">*{stroke-linejoin: round; stroke-linecap: butt}</style>
 </defs>
 <g id="figure_1">
  <g id="patch_1">
   <path d="M 0 365.301328 
L 695.508281 365.301328 
L 695.508281 0 
L 0 0 
z
" style="fill: #ffffff"/>
  </g>
  <g id="axes_1">
   <g id="patch_2">
    <path d="M 72.272109 310.05 
L 617.972109 310.05 
L 617.972109 70.95 
L 72.272109 70.95 
z
" style="fill: #ffffff"/>
   </g>
   <g id="matplotlib.axis_1">
    <g id="xtick_1">
     <g id="line2d_1">
      <defs>
       <path id="ma3afc2e0d9" d="M 0 0 
L 0 9 
" style="stroke: #262626; stroke-width: 1.875"/>
      </defs>
      <g>
       <use xlink:href="#ma3afc2e0d9" x="72.272109" y="310.05" style="fill: #262626; stroke: #262626; stroke-width: 1.875"/>
      </g>
     </g>
     <g id="text_1">
      <!-- 0 -->
      <g style="fill: #262626" transform="translate(67.684336 334.360391) scale(0.165 -0.165)">
       <defs>
        <path id="ArialMT-30" d="M 266 2259 
Q 266 3072 433 3567 
Q 600 4063 929 4331 
Q 1259 4600 1759 4600 
Q 2128 4600 2406 4451 
Q 2684 4303 2865 4023 
Q 3047 3744 3150 3342 
Q 3253 2941 3253 2259 
Q 3253 1453 3087 958 
Q 2922 463 2592 192 
Q 2263 -78 1759 -78 
Q 1097 -78 719 397 
Q 266 969 266 2259 
z
M 844 2259 
Q 844 1131 1108 757 
Q 1372 384 1759 384 
Q 2147 384 2411 759 
Q 2675 1134 2675 2259 
Q 2675 3391 2411 3762 
Q 2147 4134 1753 4134 
Q 1366 4134 1134 3806 
Q 844 3388 844 2259 
z
" transform="scale(0.015625)"/>
       </defs>
       <use xlink:href="#ArialMT-30"/>
      </g>
     </g>
    </g>
    <g id="xtick_2">
     <g id="line2d_2">
      <g>
       <use xlink:href="#ma3afc2e0d9" x="140.484609" y="310.05" style="fill: #262626; stroke: #262626; stroke-width: 1.875"/>
      </g>
     </g>
     <g id="text_2">
      <!-- 10 -->
      <g style="fill: #262626" transform="translate(131.309063 334.360391) scale(0.165 -0.165)">
       <defs>
        <path id="ArialMT-31" d="M 2384 0 
L 1822 0 
L 1822 3584 
Q 1619 3391 1289 3197 
Q 959 3003 697 2906 
L 697 3450 
Q 1169 3672 1522 3987 
Q 1875 4303 2022 4600 
L 2384 4600 
L 2384 0 
z
" transform="scale(0.015625)"/>
       </defs>
       <use xlink:href="#ArialMT-31"/>
       <use xlink:href="#ArialMT-30" transform="translate(55.615234 0)"/>
      </g>
     </g>
    </g>
    <g id="xtick_3">
     <g id="line2d_3">
      <g>
       <use xlink:href="#ma3afc2e0d9" x="208.697109" y="310.05" style="fill: #262626; stroke: #262626; stroke-width: 1.875"/>
      </g>
     </g>
     <g id="text_3">
      <!-- 20 -->
      <g style="fill: #262626" transform="translate(199.521563 334.360391) scale(0.165 -0.165)">
       <defs>
        <path id="ArialMT-32" d="M 3222 541 
L 3222 0 
L 194 0 
Q 188 203 259 391 
Q 375 700 629 1000 
Q 884 1300 1366 1694 
Q 2113 2306 2375 2664 
Q 2638 3022 2638 3341 
Q 2638 3675 2398 3904 
Q 2159 4134 1775 4134 
Q 1369 4134 1125 3890 
Q 881 3647 878 3216 
L 300 3275 
Q 359 3922 746 4261 
Q 1134 4600 1788 4600 
Q 2447 4600 2831 4234 
Q 3216 3869 3216 3328 
Q 3216 3053 3103 2787 
Q 2991 2522 2730 2228 
Q 2469 1934 1863 1422 
Q 1356 997 1212 845 
Q 1069 694 975 541 
L 3222 541 
z
" transform="scale(0.015625)"/>
       </defs>
       <use xlink:href="#ArialMT-32"/>
       <use xlink:href="#ArialMT-30" transform="translate(55.615234 0)"/>
      </g>
     </g>
    </g>
    <g id="xtick_4">
     <g id="line2d_4">
      <g>
       <use xlink:href="#ma3afc2e0d9" x="276.909609" y="310.05" style="fill: #262626; stroke: #262626; stroke-width: 1.875"/>
      </g>
     </g>
     <g id="text_4">
      <!-- 30 -->
      <g style="fill: #262626" transform="translate(267.734063 334.360391) scale(0.165 -0.165)">
       <defs>
        <path id="ArialMT-33" d="M 269 1209 
L 831 1284 
Q 928 806 1161 595 
Q 1394 384 1728 384 
Q 2125 384 2398 659 
Q 2672 934 2672 1341 
Q 2672 1728 2419 1979 
Q 2166 2231 1775 2231 
Q 1616 2231 1378 2169 
L 1441 2663 
Q 1497 2656 1531 2656 
Q 1891 2656 2178 2843 
Q 2466 3031 2466 3422 
Q 2466 3731 2256 3934 
Q 2047 4138 1716 4138 
Q 1388 4138 1169 3931 
Q 950 3725 888 3313 
L 325 3413 
Q 428 3978 793 4289 
Q 1159 4600 1703 4600 
Q 2078 4600 2393 4439 
Q 2709 4278 2876 4000 
Q 3044 3722 3044 3409 
Q 3044 3113 2884 2869 
Q 2725 2625 2413 2481 
Q 2819 2388 3044 2092 
Q 3269 1797 3269 1353 
Q 3269 753 2831 336 
Q 2394 -81 1725 -81 
Q 1122 -81 723 278 
Q 325 638 269 1209 
z
" transform="scale(0.015625)"/>
       </defs>
       <use xlink:href="#ArialMT-33"/>
       <use xlink:href="#ArialMT-30" transform="translate(55.615234 0)"/>
      </g>
     </g>
    </g>
    <g id="xtick_5">
     <g id="line2d_5">
      <g>
       <use xlink:href="#ma3afc2e0d9" x="345.122109" y="310.05" style="fill: #262626; stroke: #262626; stroke-width: 1.875"/>
      </g>
     </g>
     <g id="text_5">
      <!-- 40 -->
      <g style="fill: #262626" transform="translate(335.946563 334.360391) scale(0.165 -0.165)">
       <defs>
        <path id="ArialMT-34" d="M 2069 0 
L 2069 1097 
L 81 1097 
L 81 1613 
L 2172 4581 
L 2631 4581 
L 2631 1613 
L 3250 1613 
L 3250 1097 
L 2631 1097 
L 2631 0 
L 2069 0 
z
M 2069 1613 
L 2069 3678 
L 634 1613 
L 2069 1613 
z
" transform="scale(0.015625)"/>
       </defs>
       <use xlink:href="#ArialMT-34"/>
       <use xlink:href="#ArialMT-30" transform="translate(55.615234 0)"/>
      </g>
     </g>
    </g>
    <g id="xtick_6">
     <g id="line2d_6">
      <g>
       <use xlink:href="#ma3afc2e0d9" x="413.334609" y="310.05" style="fill: #262626; stroke: #262626; stroke-width: 1.875"/>
      </g>
     </g>
     <g id="text_6">
      <!-- 50 -->
      <g style="fill: #262626" transform="translate(404.159063 334.360391) scale(0.165 -0.165)">
       <defs>
        <path id="ArialMT-35" d="M 266 1200 
L 856 1250 
Q 922 819 1161 601 
Q 1400 384 1738 384 
Q 2144 384 2425 690 
Q 2706 997 2706 1503 
Q 2706 1984 2436 2262 
Q 2166 2541 1728 2541 
Q 1456 2541 1237 2417 
Q 1019 2294 894 2097 
L 366 2166 
L 809 4519 
L 3088 4519 
L 3088 3981 
L 1259 3981 
L 1013 2750 
Q 1425 3038 1878 3038 
Q 2478 3038 2890 2622 
Q 3303 2206 3303 1553 
Q 3303 931 2941 478 
Q 2500 -78 1738 -78 
Q 1113 -78 717 272 
Q 322 622 266 1200 
z
" transform="scale(0.015625)"/>
       </defs>
       <use xlink:href="#ArialMT-35"/>
       <use xlink:href="#ArialMT-30" transform="translate(55.615234 0)"/>
      </g>
     </g>
    </g>
    <g id="xtick_7">
     <g id="line2d_7">
      <g>
       <use xlink:href="#ma3afc2e0d9" x="481.547109" y="310.05" style="fill: #262626; stroke: #262626; stroke-width: 1.875"/>
      </g>
     </g>
     <g id="text_7">
      <!-- 60 -->
      <g style="fill: #262626" transform="translate(472.371563 334.360391) scale(0.165 -0.165)">
       <defs>
        <path id="ArialMT-36" d="M 3184 3459 
L 2625 3416 
Q 2550 3747 2413 3897 
Q 2184 4138 1850 4138 
Q 1581 4138 1378 3988 
Q 1113 3794 959 3422 
Q 806 3050 800 2363 
Q 1003 2672 1297 2822 
Q 1591 2972 1913 2972 
Q 2475 2972 2870 2558 
Q 3266 2144 3266 1488 
Q 3266 1056 3080 686 
Q 2894 316 2569 119 
Q 2244 -78 1831 -78 
Q 1128 -78 684 439 
Q 241 956 241 2144 
Q 241 3472 731 4075 
Q 1159 4600 1884 4600 
Q 2425 4600 2770 4297 
Q 3116 3994 3184 3459 
z
M 888 1484 
Q 888 1194 1011 928 
Q 1134 663 1356 523 
Q 1578 384 1822 384 
Q 2178 384 2434 671 
Q 2691 959 2691 1453 
Q 2691 1928 2437 2201 
Q 2184 2475 1800 2475 
Q 1419 2475 1153 2201 
Q 888 1928 888 1484 
z
" transform="scale(0.015625)"/>
       </defs>
       <use xlink:href="#ArialMT-36"/>
       <use xlink:href="#ArialMT-30" transform="translate(55.615234 0)"/>
      </g>
     </g>
    </g>
    <g id="xtick_8">
     <g id="line2d_8">
      <g>
       <use xlink:href="#ma3afc2e0d9" x="549.759609" y="310.05" style="fill: #262626; stroke: #262626; stroke-width: 1.875"/>
      </g>
     </g>
     <g id="text_8">
      <!-- 70 -->
      <g style="fill: #262626" transform="translate(540.584063 334.360391) scale(0.165 -0.165)">
       <defs>
        <path id="ArialMT-37" d="M 303 3981 
L 303 4522 
L 3269 4522 
L 3269 4084 
Q 2831 3619 2401 2847 
Q 1972 2075 1738 1259 
Q 1569 684 1522 0 
L 944 0 
Q 953 541 1156 1306 
Q 1359 2072 1739 2783 
Q 2119 3494 2547 3981 
L 303 3981 
z
" transform="scale(0.015625)"/>
       </defs>
       <use xlink:href="#ArialMT-37"/>
       <use xlink:href="#ArialMT-30" transform="translate(55.615234 0)"/>
      </g>
     </g>
    </g>
    <g id="xtick_9">
     <g id="line2d_9">
      <g>
       <use xlink:href="#ma3afc2e0d9" x="617.972109" y="310.05" style="fill: #262626; stroke: #262626; stroke-width: 1.875"/>
      </g>
     </g>
     <g id="text_9">
      <!-- 80 -->
      <g style="fill: #262626" transform="translate(608.796563 334.360391) scale(0.165 -0.165)">
       <defs>
        <path id="ArialMT-38" d="M 1131 2484 
Q 781 2613 612 2850 
Q 444 3088 444 3419 
Q 444 3919 803 4259 
Q 1163 4600 1759 4600 
Q 2359 4600 2725 4251 
Q 3091 3903 3091 3403 
Q 3091 3084 2923 2848 
Q 2756 2613 2416 2484 
Q 2838 2347 3058 2040 
Q 3278 1734 3278 1309 
Q 3278 722 2862 322 
Q 2447 -78 1769 -78 
Q 1091 -78 675 323 
Q 259 725 259 1325 
Q 259 1772 486 2073 
Q 713 2375 1131 2484 
z
M 1019 3438 
Q 1019 3113 1228 2906 
Q 1438 2700 1772 2700 
Q 2097 2700 2305 2904 
Q 2513 3109 2513 3406 
Q 2513 3716 2298 3927 
Q 2084 4138 1766 4138 
Q 1444 4138 1231 3931 
Q 1019 3725 1019 3438 
z
M 838 1322 
Q 838 1081 952 856 
Q 1066 631 1291 507 
Q 1516 384 1775 384 
Q 2178 384 2440 643 
Q 2703 903 2703 1303 
Q 2703 1709 2433 1975 
Q 2163 2241 1756 2241 
Q 1359 2241 1098 1978 
Q 838 1716 838 1322 
z
" transform="scale(0.015625)"/>
       </defs>
       <use xlink:href="#ArialMT-38"/>
       <use xlink:href="#ArialMT-30" transform="translate(55.615234 0)"/>
      </g>
     </g>
    </g>
    <g id="text_10">
     <!-- Epoch -->
     <g style="fill: #262626" transform="translate(319.604297 354.523828) scale(0.18 -0.18)">
      <defs>
       <path id="ArialMT-45" d="M 506 0 
L 506 4581 
L 3819 4581 
L 3819 4041 
L 1113 4041 
L 1113 2638 
L 3647 2638 
L 3647 2100 
L 1113 2100 
L 1113 541 
L 3925 541 
L 3925 0 
L 506 0 
z
" transform="scale(0.015625)"/>
       <path id="ArialMT-70" d="M 422 -1272 
L 422 3319 
L 934 3319 
L 934 2888 
Q 1116 3141 1344 3267 
Q 1572 3394 1897 3394 
Q 2322 3394 2647 3175 
Q 2972 2956 3137 2557 
Q 3303 2159 3303 1684 
Q 3303 1175 3120 767 
Q 2938 359 2589 142 
Q 2241 -75 1856 -75 
Q 1575 -75 1351 44 
Q 1128 163 984 344 
L 984 -1272 
L 422 -1272 
z
M 931 1641 
Q 931 1000 1190 694 
Q 1450 388 1819 388 
Q 2194 388 2461 705 
Q 2728 1022 2728 1688 
Q 2728 2322 2467 2637 
Q 2206 2953 1844 2953 
Q 1484 2953 1207 2617 
Q 931 2281 931 1641 
z
" transform="scale(0.015625)"/>
       <path id="ArialMT-6f" d="M 213 1659 
Q 213 2581 725 3025 
Q 1153 3394 1769 3394 
Q 2453 3394 2887 2945 
Q 3322 2497 3322 1706 
Q 3322 1066 3130 698 
Q 2938 331 2570 128 
Q 2203 -75 1769 -75 
Q 1072 -75 642 372 
Q 213 819 213 1659 
z
M 791 1659 
Q 791 1022 1069 705 
Q 1347 388 1769 388 
Q 2188 388 2466 706 
Q 2744 1025 2744 1678 
Q 2744 2294 2464 2611 
Q 2184 2928 1769 2928 
Q 1347 2928 1069 2612 
Q 791 2297 791 1659 
z
" transform="scale(0.015625)"/>
       <path id="ArialMT-63" d="M 2588 1216 
L 3141 1144 
Q 3050 572 2676 248 
Q 2303 -75 1759 -75 
Q 1078 -75 664 370 
Q 250 816 250 1647 
Q 250 2184 428 2587 
Q 606 2991 970 3192 
Q 1334 3394 1763 3394 
Q 2303 3394 2647 3120 
Q 2991 2847 3088 2344 
L 2541 2259 
Q 2463 2594 2264 2762 
Q 2066 2931 1784 2931 
Q 1359 2931 1093 2626 
Q 828 2322 828 1663 
Q 828 994 1084 691 
Q 1341 388 1753 388 
Q 2084 388 2306 591 
Q 2528 794 2588 1216 
z
" transform="scale(0.015625)"/>
       <path id="ArialMT-68" d="M 422 0 
L 422 4581 
L 984 4581 
L 984 2938 
Q 1378 3394 1978 3394 
Q 2347 3394 2619 3248 
Q 2891 3103 3008 2847 
Q 3125 2591 3125 2103 
L 3125 0 
L 2563 0 
L 2563 2103 
Q 2563 2525 2380 2717 
Q 2197 2909 1863 2909 
Q 1613 2909 1392 2779 
Q 1172 2650 1078 2428 
Q 984 2206 984 1816 
L 984 0 
L 422 0 
z
" transform="scale(0.015625)"/>
      </defs>
      <use xlink:href="#ArialMT-45"/>
      <use xlink:href="#ArialMT-70" transform="translate(66.699219 0)"/>
      <use xlink:href="#ArialMT-6f" transform="translate(122.314453 0)"/>
      <use xlink:href="#ArialMT-63" transform="translate(177.929688 0)"/>
      <use xlink:href="#ArialMT-68" transform="translate(227.929688 0)"/>
     </g>
    </g>
   </g>
   <g id="matplotlib.axis_2">
    <g id="ytick_1">
     <g id="line2d_10">
      <defs>
       <path id="m768115fb54" d="M 0 0 
L -9 0 
" style="stroke: #262626; stroke-width: 1.875"/>
      </defs>
      <g>
       <use xlink:href="#m768115fb54" x="72.272109" y="310.05" style="fill: #262626; stroke: #262626; stroke-width: 1.875"/>
      </g>
     </g>
     <g id="text_11">
      <!-- 0.80 -->
      <g style="fill: #262626" transform="translate(27.661563 315.955195) scale(0.165 -0.165)">
       <defs>
        <path id="ArialMT-2e" d="M 581 0 
L 581 641 
L 1222 641 
L 1222 0 
L 581 0 
z
" transform="scale(0.015625)"/>
       </defs>
       <use xlink:href="#ArialMT-30"/>
       <use xlink:href="#ArialMT-2e" transform="translate(55.615234 0)"/>
       <use xlink:href="#ArialMT-38" transform="translate(83.398438 0)"/>
       <use xlink:href="#ArialMT-30" transform="translate(139.013672 0)"/>
      </g>
     </g>
    </g>
    <g id="ytick_2">
     <g id="line2d_11">
      <g>
       <use xlink:href="#m768115fb54" x="72.272109" y="250.275" style="fill: #262626; stroke: #262626; stroke-width: 1.875"/>
      </g>
     </g>
     <g id="text_12">
      <!-- 0.85 -->
      <g style="fill: #262626" transform="translate(27.661563 256.180195) scale(0.165 -0.165)">
       <use xlink:href="#ArialMT-30"/>
       <use xlink:href="#ArialMT-2e" transform="translate(55.615234 0)"/>
       <use xlink:href="#ArialMT-38" transform="translate(83.398438 0)"/>
       <use xlink:href="#ArialMT-35" transform="translate(139.013672 0)"/>
      </g>
     </g>
    </g>
    <g id="ytick_3">
     <g id="line2d_12">
      <g>
       <use xlink:href="#m768115fb54" x="72.272109" y="190.5" style="fill: #262626; stroke: #262626; stroke-width: 1.875"/>
      </g>
     </g>
     <g id="text_13">
      <!-- 0.90 -->
      <g style="fill: #262626" transform="translate(27.661563 196.405195) scale(0.165 -0.165)">
       <defs>
        <path id="ArialMT-39" d="M 350 1059 
L 891 1109 
Q 959 728 1153 556 
Q 1347 384 1650 384 
Q 1909 384 2104 503 
Q 2300 622 2425 820 
Q 2550 1019 2634 1356 
Q 2719 1694 2719 2044 
Q 2719 2081 2716 2156 
Q 2547 1888 2255 1720 
Q 1963 1553 1622 1553 
Q 1053 1553 659 1965 
Q 266 2378 266 3053 
Q 266 3750 677 4175 
Q 1088 4600 1706 4600 
Q 2153 4600 2523 4359 
Q 2894 4119 3086 3673 
Q 3278 3228 3278 2384 
Q 3278 1506 3087 986 
Q 2897 466 2520 194 
Q 2144 -78 1638 -78 
Q 1100 -78 759 220 
Q 419 519 350 1059 
z
M 2653 3081 
Q 2653 3566 2395 3850 
Q 2138 4134 1775 4134 
Q 1400 4134 1122 3828 
Q 844 3522 844 3034 
Q 844 2597 1108 2323 
Q 1372 2050 1759 2050 
Q 2150 2050 2401 2323 
Q 2653 2597 2653 3081 
z
" transform="scale(0.015625)"/>
       </defs>
       <use xlink:href="#ArialMT-30"/>
       <use xlink:href="#ArialMT-2e" transform="translate(55.615234 0)"/>
       <use xlink:href="#ArialMT-39" transform="translate(83.398438 0)"/>
       <use xlink:href="#ArialMT-30" transform="translate(139.013672 0)"/>
      </g>
     </g>
    </g>
    <g id="ytick_4">
     <g id="line2d_13">
      <g>
       <use xlink:href="#m768115fb54" x="72.272109" y="130.725" style="fill: #262626; stroke: #262626; stroke-width: 1.875"/>
      </g>
     </g>
     <g id="text_14">
      <!-- 0.95 -->
      <g style="fill: #262626" transform="translate(27.661563 136.630195) scale(0.165 -0.165)">
       <use xlink:href="#ArialMT-30"/>
       <use xlink:href="#ArialMT-2e" transform="translate(55.615234 0)"/>
       <use xlink:href="#ArialMT-39" transform="translate(83.398438 0)"/>
       <use xlink:href="#ArialMT-35" transform="translate(139.013672 0)"/>
      </g>
     </g>
    </g>
    <g id="ytick_5">
     <g id="line2d_14">
      <g>
       <use xlink:href="#m768115fb54" x="72.272109" y="70.95" style="fill: #262626; stroke: #262626; stroke-width: 1.875"/>
      </g>
     </g>
     <g id="text_15">
      <!-- 1.00 -->
      <g style="fill: #262626" transform="translate(27.661563 76.855195) scale(0.165 -0.165)">
       <use xlink:href="#ArialMT-31"/>
       <use xlink:href="#ArialMT-2e" transform="translate(55.615234 0)"/>
       <use xlink:href="#ArialMT-30" transform="translate(83.398438 0)"/>
       <use xlink:href="#ArialMT-30" transform="translate(139.013672 0)"/>
      </g>
     </g>
    </g>
    <g id="text_16">
     <!-- Metric value -->
     <g style="fill: #262626" transform="translate(20.084063 239.012812) rotate(-90) scale(0.18 -0.18)">
      <defs>
       <path id="ArialMT-4d" d="M 475 0 
L 475 4581 
L 1388 4581 
L 2472 1338 
Q 2622 884 2691 659 
Q 2769 909 2934 1394 
L 4031 4581 
L 4847 4581 
L 4847 0 
L 4263 0 
L 4263 3834 
L 2931 0 
L 2384 0 
L 1059 3900 
L 1059 0 
L 475 0 
z
" transform="scale(0.015625)"/>
       <path id="ArialMT-65" d="M 2694 1069 
L 3275 997 
Q 3138 488 2766 206 
Q 2394 -75 1816 -75 
Q 1088 -75 661 373 
Q 234 822 234 1631 
Q 234 2469 665 2931 
Q 1097 3394 1784 3394 
Q 2450 3394 2872 2941 
Q 3294 2488 3294 1666 
Q 3294 1616 3291 1516 
L 816 1516 
Q 847 969 1125 678 
Q 1403 388 1819 388 
Q 2128 388 2347 550 
Q 2566 713 2694 1069 
z
M 847 1978 
L 2700 1978 
Q 2663 2397 2488 2606 
Q 2219 2931 1791 2931 
Q 1403 2931 1139 2672 
Q 875 2413 847 1978 
z
" transform="scale(0.015625)"/>
       <path id="ArialMT-74" d="M 1650 503 
L 1731 6 
Q 1494 -44 1306 -44 
Q 1000 -44 831 53 
Q 663 150 594 308 
Q 525 466 525 972 
L 525 2881 
L 113 2881 
L 113 3319 
L 525 3319 
L 525 4141 
L 1084 4478 
L 1084 3319 
L 1650 3319 
L 1650 2881 
L 1084 2881 
L 1084 941 
Q 1084 700 1114 631 
Q 1144 563 1211 522 
Q 1278 481 1403 481 
Q 1497 481 1650 503 
z
" transform="scale(0.015625)"/>
       <path id="ArialMT-72" d="M 416 0 
L 416 3319 
L 922 3319 
L 922 2816 
Q 1116 3169 1280 3281 
Q 1444 3394 1641 3394 
Q 1925 3394 2219 3213 
L 2025 2691 
Q 1819 2813 1613 2813 
Q 1428 2813 1281 2702 
Q 1134 2591 1072 2394 
Q 978 2094 978 1738 
L 978 0 
L 416 0 
z
" transform="scale(0.015625)"/>
       <path id="ArialMT-69" d="M 425 3934 
L 425 4581 
L 988 4581 
L 988 3934 
L 425 3934 
z
M 425 0 
L 425 3319 
L 988 3319 
L 988 0 
L 425 0 
z
" transform="scale(0.015625)"/>
       <path id="ArialMT-20" transform="scale(0.015625)"/>
       <path id="ArialMT-76" d="M 1344 0 
L 81 3319 
L 675 3319 
L 1388 1331 
Q 1503 1009 1600 663 
Q 1675 925 1809 1294 
L 2547 3319 
L 3125 3319 
L 1869 0 
L 1344 0 
z
" transform="scale(0.015625)"/>
       <path id="ArialMT-61" d="M 2588 409 
Q 2275 144 1986 34 
Q 1697 -75 1366 -75 
Q 819 -75 525 192 
Q 231 459 231 875 
Q 231 1119 342 1320 
Q 453 1522 633 1644 
Q 813 1766 1038 1828 
Q 1203 1872 1538 1913 
Q 2219 1994 2541 2106 
Q 2544 2222 2544 2253 
Q 2544 2597 2384 2738 
Q 2169 2928 1744 2928 
Q 1347 2928 1158 2789 
Q 969 2650 878 2297 
L 328 2372 
Q 403 2725 575 2942 
Q 747 3159 1072 3276 
Q 1397 3394 1825 3394 
Q 2250 3394 2515 3294 
Q 2781 3194 2906 3042 
Q 3031 2891 3081 2659 
Q 3109 2516 3109 2141 
L 3109 1391 
Q 3109 606 3145 398 
Q 3181 191 3288 0 
L 2700 0 
Q 2613 175 2588 409 
z
M 2541 1666 
Q 2234 1541 1622 1453 
Q 1275 1403 1131 1340 
Q 988 1278 909 1158 
Q 831 1038 831 891 
Q 831 666 1001 516 
Q 1172 366 1500 366 
Q 1825 366 2078 508 
Q 2331 650 2450 897 
Q 2541 1088 2541 1459 
L 2541 1666 
z
" transform="scale(0.015625)"/>
       <path id="ArialMT-6c" d="M 409 0 
L 409 4581 
L 972 4581 
L 972 0 
L 409 0 
z
" transform="scale(0.015625)"/>
       <path id="ArialMT-75" d="M 2597 0 
L 2597 488 
Q 2209 -75 1544 -75 
Q 1250 -75 995 37 
Q 741 150 617 320 
Q 494 491 444 738 
Q 409 903 409 1263 
L 409 3319 
L 972 3319 
L 972 1478 
Q 972 1038 1006 884 
Q 1059 663 1231 536 
Q 1403 409 1656 409 
Q 1909 409 2131 539 
Q 2353 669 2445 892 
Q 2538 1116 2538 1541 
L 2538 3319 
L 3100 3319 
L 3100 0 
L 2597 0 
z
" transform="scale(0.015625)"/>
      </defs>
      <use xlink:href="#ArialMT-4d"/>
      <use xlink:href="#ArialMT-65" transform="translate(83.300781 0)"/>
      <use xlink:href="#ArialMT-74" transform="translate(138.916016 0)"/>
      <use xlink:href="#ArialMT-72" transform="translate(166.699219 0)"/>
      <use xlink:href="#ArialMT-69" transform="translate(200 0)"/>
      <use xlink:href="#ArialMT-63" transform="translate(222.216797 0)"/>
      <use xlink:href="#ArialMT-20" transform="translate(272.216797 0)"/>
      <use xlink:href="#ArialMT-76" transform="translate(300 0)"/>
      <use xlink:href="#ArialMT-61" transform="translate(350 0)"/>
      <use xlink:href="#ArialMT-6c" transform="translate(405.615234 0)"/>
      <use xlink:href="#ArialMT-75" transform="translate(427.832031 0)"/>
      <use xlink:href="#ArialMT-65" transform="translate(483.447266 0)"/>
     </g>
    </g>
   </g>
   <g id="FillBetweenPolyCollection_1">
    <defs>
     <path id="mbc05e4a689" d="M 79.093359 -191.500156 
L 79.093359 -158.045254 
L 85.914609 -170.187611 
L 92.735859 -177.837941 
L 99.557109 -184.700468 
L 106.378359 -194.86912 
L 113.199609 -198.401341 
L 120.020859 -201.946147 
L 126.842109 -204.7481 
L 133.663359 -206.732997 
L 140.484609 -211.486665 
L 147.305859 -213.534318 
L 154.127109 -216.741683 
L 160.948359 -216.21709 
L 167.769609 -219.030902 
L 174.590859 -221.259553 
L 181.412109 -222.445607 
L 188.233359 -224.338405 
L 195.054609 -222.05103 
L 201.875859 -223.175254 
L 208.697109 -225.797985 
L 215.518359 -227.113553 
L 222.339609 -226.562943 
L 229.160859 -227.139178 
L 235.982109 -231.701113 
L 242.803359 -230.549011 
L 249.624609 -232.428787 
L 256.445859 -231.542974 
L 263.267109 -233.388928 
L 270.088359 -233.366129 
L 276.909609 -234.20316 
L 283.730859 -234.215059 
L 290.552109 -235.591528 
L 297.373359 -236.991639 
L 304.194609 -237.172947 
L 311.015859 -239.940751 
L 317.837109 -240.657577 
L 324.658359 -239.796463 
L 331.479609 -242.584704 
L 338.300859 -241.268627 
L 345.122109 -242.119749 
L 351.943359 -244.10716 
L 358.764609 -243.504746 
L 365.585859 -245.399555 
L 372.407109 -247.015429 
L 379.228359 -247.674262 
L 386.049609 -246.14209 
L 392.870859 -250.454052 
L 399.692109 -248.967408 
L 406.513359 -249.231501 
L 413.334609 -248.943317 
L 420.155859 -252.284846 
L 426.977109 -250.907584 
L 433.798359 -253.697725 
L 440.619609 -251.650222 
L 447.440859 -253.525445 
L 454.262109 -253.877774 
L 461.083359 -252.595803 
L 467.904609 -254.319947 
L 474.725859 -256.608454 
L 481.547109 -255.027267 
L 488.368359 -256.703856 
L 495.189609 -256.307622 
L 502.010859 -256.488361 
L 508.832109 -258.571653 
L 515.653359 -256.05737 
L 522.474609 -255.0982 
L 529.295859 -258.628931 
L 536.117109 -257.828935 
L 542.938359 -258.450003 
L 549.759609 -257.575716 
L 556.580859 -259.90134 
L 563.402109 -258.797744 
L 570.223359 -259.444736 
L 577.044609 -260.605297 
L 583.865859 -260.365351 
L 590.687109 -261.182281 
L 597.508359 -260.750009 
L 604.329609 -261.215304 
L 611.150859 -261.014971 
L 617.972109 -259.793008 
L 617.972109 -266.475536 
L 617.972109 -266.475536 
L 611.150859 -264.596143 
L 604.329609 -266.930527 
L 597.508359 -265.948547 
L 590.687109 -265.865994 
L 583.865859 -265.158866 
L 577.044609 -265.254118 
L 570.223359 -265.087682 
L 563.402109 -263.290944 
L 556.580859 -264.955367 
L 549.759609 -264.512623 
L 542.938359 -263.517238 
L 536.117109 -263.673833 
L 529.295859 -264.679753 
L 522.474609 -262.655986 
L 515.653359 -263.315207 
L 508.832109 -263.672933 
L 502.010859 -262.239609 
L 495.189609 -263.038244 
L 488.368359 -261.326599 
L 481.547109 -261.688142 
L 474.725859 -261.805501 
L 467.904609 -260.224851 
L 461.083359 -258.931997 
L 454.262109 -259.602298 
L 447.440859 -260.117146 
L 440.619609 -258.237199 
L 433.798359 -258.633012 
L 426.977109 -256.489637 
L 420.155859 -257.852222 
L 413.334609 -256.129183 
L 406.513359 -255.507457 
L 399.692109 -255.87052 
L 392.870859 -255.397683 
L 386.049609 -254.6325 
L 379.228359 -253.974465 
L 372.407109 -254.89749 
L 365.585859 -253.386917 
L 358.764609 -252.213524 
L 351.943359 -252.872843 
L 345.122109 -251.171534 
L 338.300859 -250.191529 
L 331.479609 -250.058653 
L 324.658359 -248.239143 
L 317.837109 -248.551347 
L 311.015859 -247.724254 
L 304.194609 -247.052597 
L 297.373359 -246.78792 
L 290.552109 -243.965599 
L 283.730859 -244.540026 
L 276.909609 -242.897121 
L 270.088359 -242.502774 
L 263.267109 -241.387688 
L 256.445859 -241.605275 
L 249.624609 -240.863937 
L 242.803359 -239.629423 
L 235.982109 -238.598841 
L 229.160859 -235.977305 
L 222.339609 -236.310287 
L 215.518359 -236.013527 
L 208.697109 -236.014371 
L 201.875859 -232.495183 
L 195.054609 -232.695217 
L 188.233359 -233.750992 
L 181.412109 -231.535191 
L 174.590859 -229.747662 
L 167.769609 -229.139612 
L 160.948359 -226.232115 
L 154.127109 -225.425108 
L 147.305859 -222.386225 
L 140.484609 -221.227181 
L 133.663359 -216.855577 
L 126.842109 -216.018777 
L 120.020859 -215.073011 
L 113.199609 -212.194643 
L 106.378359 -208.544807 
L 99.557109 -204.100246 
L 92.735859 -202.845612 
L 85.914609 -199.822113 
L 79.093359 -191.500156 
z
" style="stroke: #34c6c6; stroke-opacity: 0.2; stroke-width: 1.5"/>
    </defs>
    <g clip-path="url(#pf952d358de)">
     <use xlink:href="#mbc05e4a689" x="0" y="365.301328" style="fill: #34c6c6; fill-opacity: 0.2; stroke: #34c6c6; stroke-opacity: 0.2; stroke-width: 1.5"/>
    </g>
   </g>
   <g id="FillBetweenPolyCollection_2">
    <defs>
     <path id="md463bd9d5b" d="M 79.093359 -257.922368 
L 79.093359 -246.638348 
L 85.914609 -258.120939 
L 92.735859 -267.063975 
L 99.557109 -275.159389 
L 106.378359 -279.007684 
L 113.199609 -281.487169 
L 120.020859 -286.062625 
L 126.842109 -286.288939 
L 133.663359 -288.176242 
L 140.484609 -289.224121 
L 147.305859 -289.635037 
L 154.127109 -290.832906 
L 160.948359 -291.133304 
L 167.769609 -291.124375 
L 174.590859 -290.961632 
L 181.412109 -290.685622 
L 188.233359 -291.001517 
L 195.054609 -290.592636 
L 201.875859 -291.06681 
L 208.697109 -290.203769 
L 215.518359 -290.402064 
L 222.339609 -290.128828 
L 229.160859 -289.905391 
L 235.982109 -289.621198 
L 242.803359 -290.007411 
L 249.624609 -289.486635 
L 256.445859 -288.532144 
L 263.267109 -289.152781 
L 270.088359 -288.337621 
L 276.909609 -288.050841 
L 283.730859 -288.555496 
L 290.552109 -288.475434 
L 297.373359 -287.88194 
L 304.194609 -287.069583 
L 311.015859 -287.116401 
L 317.837109 -287.016448 
L 324.658359 -287.215294 
L 331.479609 -286.584748 
L 338.300859 -286.989744 
L 345.122109 -286.455993 
L 351.943359 -285.939255 
L 358.764609 -286.376028 
L 365.585859 -286.056483 
L 372.407109 -285.93921 
L 379.228359 -285.482492 
L 386.049609 -285.592199 
L 392.870859 -285.450846 
L 399.692109 -285.862992 
L 406.513359 -285.925147 
L 413.334609 -285.39419 
L 420.155859 -285.038447 
L 426.977109 -286.054414 
L 433.798359 -285.428654 
L 440.619609 -285.668094 
L 447.440859 -286.006571 
L 454.262109 -285.811883 
L 461.083359 -287.002093 
L 467.904609 -285.833034 
L 474.725859 -285.516225 
L 481.547109 -285.42752 
L 488.368359 -285.627847 
L 495.189609 -284.639009 
L 502.010859 -284.698297 
L 508.832109 -284.258073 
L 515.653359 -284.44638 
L 522.474609 -283.475236 
L 529.295859 -283.396229 
L 536.117109 -283.399418 
L 542.938359 -283.450481 
L 549.759609 -282.616442 
L 556.580859 -283.574412 
L 563.402109 -282.940907 
L 570.223359 -282.667341 
L 577.044609 -281.677223 
L 583.865859 -281.473996 
L 590.687109 -282.444926 
L 597.508359 -281.299909 
L 604.329609 -280.87329 
L 611.150859 -281.563183 
L 617.972109 -280.028107 
L 617.972109 -287.822468 
L 617.972109 -287.822468 
L 611.150859 -287.969292 
L 604.329609 -288.301659 
L 597.508359 -288.21078 
L 590.687109 -288.504185 
L 583.865859 -288.154445 
L 577.044609 -288.728178 
L 570.223359 -288.61633 
L 563.402109 -289.014583 
L 556.580859 -288.851501 
L 549.759609 -288.85327 
L 542.938359 -289.262289 
L 536.117109 -288.586593 
L 529.295859 -288.729758 
L 522.474609 -289.129517 
L 515.653359 -289.244321 
L 508.832109 -289.297956 
L 502.010859 -289.554312 
L 495.189609 -289.303063 
L 488.368359 -289.43681 
L 481.547109 -289.43438 
L 474.725859 -289.796377 
L 467.904609 -289.87002 
L 461.083359 -290.008372 
L 454.262109 -289.839411 
L 447.440859 -289.771283 
L 440.619609 -289.610335 
L 433.798359 -289.862753 
L 426.977109 -289.582996 
L 420.155859 -289.452378 
L 413.334609 -289.160804 
L 406.513359 -289.660291 
L 399.692109 -289.792031 
L 392.870859 -288.734196 
L 386.049609 -289.498657 
L 379.228359 -289.705562 
L 372.407109 -289.988185 
L 365.585859 -289.981451 
L 358.764609 -290.035295 
L 351.943359 -289.633283 
L 345.122109 -289.695074 
L 338.300859 -290.045278 
L 331.479609 -289.713692 
L 324.658359 -290.361397 
L 317.837109 -290.473525 
L 311.015859 -290.465475 
L 304.194609 -290.330574 
L 297.373359 -290.79966 
L 290.552109 -290.848582 
L 283.730859 -290.934396 
L 276.909609 -290.721015 
L 270.088359 -290.804214 
L 263.267109 -291.141053 
L 256.445859 -291.104301 
L 249.624609 -290.971395 
L 242.803359 -291.595921 
L 235.982109 -291.221027 
L 229.160859 -291.465864 
L 222.339609 -291.405745 
L 215.518359 -292.119931 
L 208.697109 -291.631826 
L 201.875859 -291.807801 
L 195.054609 -291.638559 
L 188.233359 -292.173133 
L 181.412109 -291.852563 
L 174.590859 -291.855639 
L 167.769609 -291.929755 
L 160.948359 -291.865624 
L 154.127109 -291.712781 
L 147.305859 -290.810586 
L 140.484609 -290.936291 
L 133.663359 -290.091832 
L 126.842109 -288.421192 
L 120.020859 -288.199945 
L 113.199609 -286.135248 
L 106.378359 -283.903083 
L 99.557109 -280.520719 
L 92.735859 -274.305311 
L 85.914609 -268.094505 
L 79.093359 -257.922368 
z
" style="stroke: #52c152; stroke-opacity: 0.2; stroke-width: 1.5"/>
    </defs>
    <g clip-path="url(#pf952d358de)">
     <use xlink:href="#md463bd9d5b" x="0" y="365.301328" style="fill: #52c152; fill-opacity: 0.2; stroke: #52c152; stroke-opacity: 0.2; stroke-width: 1.5"/>
    </g>
   </g>
   <g id="FillBetweenPolyCollection_3">
    <defs>
     <path id="m7498105bbd" d="M 79.093359 -223.213126 
L 79.093359 -214.36929 
L 85.914609 -223.257792 
L 92.735859 -233.653516 
L 99.557109 -243.670144 
L 106.378359 -251.003958 
L 113.199609 -258.827231 
L 120.020859 -265.717235 
L 126.842109 -270.729014 
L 133.663359 -275.402964 
L 140.484609 -278.127477 
L 147.305859 -279.60969 
L 154.127109 -283.007574 
L 160.948359 -282.950072 
L 167.769609 -285.111341 
L 174.590859 -284.905946 
L 181.412109 -285.572722 
L 188.233359 -285.374095 
L 195.054609 -285.623638 
L 201.875859 -286.748923 
L 208.697109 -285.413505 
L 215.518359 -285.104421 
L 222.339609 -285.238436 
L 229.160859 -285.121976 
L 235.982109 -284.80483 
L 242.803359 -284.911179 
L 249.624609 -284.806076 
L 256.445859 -284.494474 
L 263.267109 -283.807524 
L 270.088359 -284.63761 
L 276.909609 -284.288682 
L 283.730859 -284.577893 
L 290.552109 -284.387795 
L 297.373359 -283.688048 
L 304.194609 -283.201373 
L 311.015859 -282.549649 
L 317.837109 -282.523585 
L 324.658359 -282.606648 
L 331.479609 -283.616036 
L 338.300859 -283.440226 
L 345.122109 -282.829038 
L 351.943359 -282.605005 
L 358.764609 -281.937848 
L 365.585859 -283.31051 
L 372.407109 -282.462959 
L 379.228359 -282.823748 
L 386.049609 -282.749649 
L 392.870859 -284.144981 
L 399.692109 -283.856239 
L 406.513359 -284.152575 
L 413.334609 -284.597994 
L 420.155859 -284.536737 
L 426.977109 -285.051156 
L 433.798359 -285.158588 
L 440.619609 -285.895577 
L 447.440859 -285.282548 
L 454.262109 -285.647765 
L 461.083359 -285.667473 
L 467.904609 -286.501697 
L 474.725859 -285.493773 
L 481.547109 -285.890363 
L 488.368359 -286.023716 
L 495.189609 -286.281877 
L 502.010859 -285.92383 
L 508.832109 -286.18757 
L 515.653359 -286.719203 
L 522.474609 -286.836244 
L 529.295859 -286.01016 
L 536.117109 -286.966098 
L 542.938359 -286.172147 
L 549.759609 -286.106548 
L 556.580859 -285.779865 
L 563.402109 -285.895871 
L 570.223359 -285.953404 
L 577.044609 -285.189398 
L 583.865859 -285.936213 
L 590.687109 -285.190199 
L 597.508359 -285.646202 
L 604.329609 -285.570668 
L 611.150859 -284.543311 
L 617.972109 -284.376852 
L 617.972109 -288.622141 
L 617.972109 -288.622141 
L 611.150859 -288.219314 
L 604.329609 -288.075787 
L 597.508359 -288.382416 
L 590.687109 -287.855197 
L 583.865859 -288.614605 
L 577.044609 -288.336459 
L 570.223359 -288.833718 
L 563.402109 -288.445848 
L 556.580859 -288.65183 
L 549.759609 -288.563209 
L 542.938359 -288.847542 
L 536.117109 -288.5852 
L 529.295859 -288.380585 
L 522.474609 -288.732886 
L 515.653359 -288.393914 
L 508.832109 -288.380219 
L 502.010859 -288.81492 
L 495.189609 -288.559118 
L 488.368359 -288.940776 
L 481.547109 -288.517301 
L 474.725859 -288.386639 
L 467.904609 -288.476558 
L 461.083359 -288.54041 
L 454.262109 -288.186483 
L 447.440859 -287.697294 
L 440.619609 -288.130844 
L 433.798359 -287.303765 
L 426.977109 -287.70313 
L 420.155859 -287.567096 
L 413.334609 -287.59983 
L 406.513359 -287.542858 
L 399.692109 -286.836612 
L 392.870859 -287.335433 
L 386.049609 -286.439605 
L 379.228359 -286.422023 
L 372.407109 -286.193508 
L 365.585859 -286.719163 
L 358.764609 -285.994601 
L 351.943359 -285.920698 
L 345.122109 -286.241901 
L 338.300859 -286.381715 
L 331.479609 -286.203645 
L 324.658359 -286.459231 
L 317.837109 -286.222223 
L 311.015859 -285.769792 
L 304.194609 -286.642362 
L 297.373359 -285.815744 
L 290.552109 -286.416272 
L 283.730859 -286.495654 
L 276.909609 -286.386753 
L 270.088359 -287.316445 
L 263.267109 -286.51794 
L 256.445859 -286.951079 
L 249.624609 -286.611633 
L 242.803359 -287.221972 
L 235.982109 -287.176036 
L 229.160859 -287.326912 
L 222.339609 -287.238045 
L 215.518359 -286.992002 
L 208.697109 -287.726741 
L 201.875859 -287.757809 
L 195.054609 -287.739335 
L 188.233359 -287.728694 
L 181.412109 -287.020009 
L 174.590859 -287.706983 
L 167.769609 -286.973283 
L 160.948359 -286.230208 
L 154.127109 -285.784589 
L 147.305859 -283.766273 
L 140.484609 -282.279176 
L 133.663359 -280.277898 
L 126.842109 -276.368862 
L 120.020859 -272.80399 
L 113.199609 -267.24082 
L 106.378359 -261.470565 
L 99.557109 -253.885224 
L 92.735859 -244.521416 
L 85.914609 -234.249862 
L 79.093359 -223.213126 
z
" style="stroke: #ac145a; stroke-opacity: 0.2; stroke-width: 1.5"/>
    </defs>
    <g clip-path="url(#pf952d358de)">
     <use xlink:href="#m7498105bbd" x="0" y="365.301328" style="fill: #ac145a; fill-opacity: 0.2; stroke: #ac145a; stroke-opacity: 0.2; stroke-width: 1.5"/>
    </g>
   </g>
   <g id="FillBetweenPolyCollection_4">
    <defs>
     <path id="m7226819ddc" d="M 79.093359 -151.33459 
L 79.093359 -149.03372 
L 85.914609 -151.20972 
L 92.735859 -152.624204 
L 99.557109 -153.619729 
L 106.378359 -154.94409 
L 113.199609 -155.674971 
L 120.020859 -156.68321 
L 126.842109 -157.457853 
L 133.663359 -157.403576 
L 140.484609 -157.973153 
L 147.305859 -158.114526 
L 154.127109 -158.468604 
L 160.948359 -158.272489 
L 167.769609 -158.174426 
L 174.590859 -158.222885 
L 181.412109 -157.807828 
L 188.233359 -157.649139 
L 195.054609 -157.587238 
L 201.875859 -157.403431 
L 208.697109 -156.914386 
L 215.518359 -156.737283 
L 222.339609 -156.490208 
L 229.160859 -156.185582 
L 235.982109 -155.781687 
L 242.803359 -155.638667 
L 249.624609 -155.084473 
L 256.445859 -154.457462 
L 263.267109 -154.455897 
L 270.088359 -154.028753 
L 276.909609 -154.166347 
L 283.730859 -153.471652 
L 290.552109 -153.411867 
L 297.373359 -153.406666 
L 304.194609 -152.806364 
L 311.015859 -152.891606 
L 317.837109 -152.45596 
L 324.658359 -152.305284 
L 331.479609 -151.982612 
L 338.300859 -151.774415 
L 345.122109 -151.414509 
L 351.943359 -151.053148 
L 358.764609 -151.284245 
L 365.585859 -151.189185 
L 372.407109 -151.570949 
L 379.228359 -151.442329 
L 386.049609 -151.542486 
L 392.870859 -151.541593 
L 399.692109 -151.73133 
L 406.513359 -151.856892 
L 413.334609 -152.180383 
L 420.155859 -152.010597 
L 426.977109 -152.151161 
L 433.798359 -151.882493 
L 440.619609 -152.083337 
L 447.440859 -151.757562 
L 454.262109 -151.790844 
L 461.083359 -151.750351 
L 467.904609 -151.636815 
L 474.725859 -151.376159 
L 481.547109 -151.408218 
L 488.368359 -150.902493 
L 495.189609 -151.134088 
L 502.010859 -150.820064 
L 508.832109 -150.712612 
L 515.653359 -150.966022 
L 522.474609 -150.531985 
L 529.295859 -150.733708 
L 536.117109 -150.530775 
L 542.938359 -150.407201 
L 549.759609 -150.288813 
L 556.580859 -150.511725 
L 563.402109 -150.589799 
L 570.223359 -150.478785 
L 577.044609 -150.381938 
L 583.865859 -150.537348 
L 590.687109 -150.063647 
L 597.508359 -149.992468 
L 604.329609 -150.144048 
L 611.150859 -149.47671 
L 617.972109 -149.557545 
L 617.972109 -153.646104 
L 617.972109 -153.646104 
L 611.150859 -153.864917 
L 604.329609 -154.131733 
L 597.508359 -154.324605 
L 590.687109 -154.24524 
L 583.865859 -154.579638 
L 577.044609 -154.339506 
L 570.223359 -154.590873 
L 563.402109 -154.737448 
L 556.580859 -154.728767 
L 549.759609 -154.667802 
L 542.938359 -154.944505 
L 536.117109 -154.76017 
L 529.295859 -155.021007 
L 522.474609 -155.208273 
L 515.653359 -155.219744 
L 508.832109 -155.367359 
L 502.010859 -154.904101 
L 495.189609 -155.26005 
L 488.368359 -155.431211 
L 481.547109 -155.392115 
L 474.725859 -155.281155 
L 467.904609 -155.303189 
L 461.083359 -155.345877 
L 454.262109 -155.015766 
L 447.440859 -155.102145 
L 440.619609 -155.237873 
L 433.798359 -154.838041 
L 426.977109 -155.269941 
L 420.155859 -155.002477 
L 413.334609 -155.120273 
L 406.513359 -154.964421 
L 399.692109 -155.553687 
L 392.870859 -155.154563 
L 386.049609 -155.142952 
L 379.228359 -154.894746 
L 372.407109 -155.241409 
L 365.585859 -155.222927 
L 358.764609 -155.120887 
L 351.943359 -154.933645 
L 345.122109 -155.160034 
L 338.300859 -155.229464 
L 331.479609 -155.397658 
L 324.658359 -155.825133 
L 317.837109 -155.565306 
L 311.015859 -155.889447 
L 304.194609 -155.803704 
L 297.373359 -155.94951 
L 290.552109 -156.177073 
L 283.730859 -156.035376 
L 276.909609 -156.363236 
L 270.088359 -156.75542 
L 263.267109 -156.781637 
L 256.445859 -156.793615 
L 249.624609 -157.04202 
L 242.803359 -157.49453 
L 235.982109 -157.777098 
L 229.160859 -158.064691 
L 222.339609 -158.260671 
L 215.518359 -158.380223 
L 208.697109 -158.524256 
L 201.875859 -158.953068 
L 195.054609 -159.087714 
L 188.233359 -159.443127 
L 181.412109 -159.420817 
L 174.590859 -159.353266 
L 167.769609 -159.675065 
L 160.948359 -159.613719 
L 154.127109 -159.980886 
L 147.305859 -159.614834 
L 140.484609 -159.771062 
L 133.663359 -159.205356 
L 126.842109 -159.220509 
L 120.020859 -158.563812 
L 113.199609 -157.746332 
L 106.378359 -156.754824 
L 99.557109 -155.765203 
L 92.735859 -154.792026 
L 85.914609 -153.180793 
L 79.093359 -151.33459 
z
" style="stroke: #500778; stroke-opacity: 0.2; stroke-width: 1.5"/>
    </defs>
    <g clip-path="url(#pf952d358de)">
     <use xlink:href="#m7226819ddc" x="0" y="365.301328" style="fill: #500778; fill-opacity: 0.2; stroke: #500778; stroke-opacity: 0.2; stroke-width: 1.5"/>
    </g>
   </g>
   <g id="FillBetweenPolyCollection_5">
    <defs>
     <path id="mf3745e8a96" d="M 79.093359 -117.178335 
L 79.093359 -95.029202 
L 85.914609 -126.580854 
L 92.735859 -158.380853 
L 99.557109 -182.245998 
L 106.378359 -199.087531 
L 113.199609 -215.328848 
L 120.020859 -229.052321 
L 126.842109 -236.988061 
L 133.663359 -245.147022 
L 140.484609 -251.610757 
L 147.305859 -257.960197 
L 154.127109 -261.527102 
L 160.948359 -263.582949 
L 167.769609 -267.261333 
L 174.590859 -268.709905 
L 181.412109 -270.820371 
L 188.233359 -270.785909 
L 195.054609 -270.578386 
L 201.875859 -270.294092 
L 208.697109 -269.475173 
L 215.518359 -268.99436 
L 222.339609 -268.886378 
L 229.160859 -268.543379 
L 235.982109 -266.703272 
L 242.803359 -266.588357 
L 249.624609 -265.689109 
L 256.445859 -264.02573 
L 263.267109 -264.298254 
L 270.088359 -264.225427 
L 276.909609 -264.549008 
L 283.730859 -263.320362 
L 290.552109 -263.391892 
L 297.373359 -262.127535 
L 304.194609 -261.63342 
L 311.015859 -260.755565 
L 317.837109 -260.083488 
L 324.658359 -258.9737 
L 331.479609 -259.06768 
L 338.300859 -258.83951 
L 345.122109 -258.648897 
L 351.943359 -258.198437 
L 358.764609 -258.267802 
L 365.585859 -259.272362 
L 372.407109 -260.151249 
L 379.228359 -261.11693 
L 386.049609 -261.340088 
L 392.870859 -263.652516 
L 399.692109 -265.192142 
L 406.513359 -265.49175 
L 413.334609 -267.030851 
L 420.155859 -267.150655 
L 426.977109 -268.80799 
L 433.798359 -269.343284 
L 440.619609 -269.678081 
L 447.440859 -270.586886 
L 454.262109 -270.709253 
L 461.083359 -270.888488 
L 467.904609 -270.967426 
L 474.725859 -271.238026 
L 481.547109 -271.371559 
L 488.368359 -271.443601 
L 495.189609 -271.392539 
L 502.010859 -271.268349 
L 508.832109 -271.80604 
L 515.653359 -271.772155 
L 522.474609 -272.736492 
L 529.295859 -272.559788 
L 536.117109 -272.74895 
L 542.938359 -272.735696 
L 549.759609 -273.520071 
L 556.580859 -273.639254 
L 563.402109 -273.438203 
L 570.223359 -273.266807 
L 577.044609 -273.83379 
L 583.865859 -272.822556 
L 590.687109 -272.424968 
L 597.508359 -272.032506 
L 604.329609 -271.583689 
L 611.150859 -271.055271 
L 617.972109 -270.534482 
L 617.972109 -276.315676 
L 617.972109 -276.315676 
L 611.150859 -276.292344 
L 604.329609 -276.750558 
L 597.508359 -276.427794 
L 590.687109 -276.370092 
L 583.865859 -277.154103 
L 577.044609 -277.635077 
L 570.223359 -277.242307 
L 563.402109 -277.693983 
L 556.580859 -278.176098 
L 549.759609 -278.692814 
L 542.938359 -278.542287 
L 536.117109 -278.845475 
L 529.295859 -278.885102 
L 522.474609 -278.840471 
L 515.653359 -278.566525 
L 508.832109 -278.408636 
L 502.010859 -278.468946 
L 495.189609 -278.103614 
L 488.368359 -277.950254 
L 481.547109 -277.693982 
L 474.725859 -277.273587 
L 467.904609 -276.649425 
L 461.083359 -277.031402 
L 454.262109 -276.316983 
L 447.440859 -276.088285 
L 440.619609 -275.606389 
L 433.798359 -275.121362 
L 426.977109 -275.321486 
L 420.155859 -274.442854 
L 413.334609 -273.666178 
L 406.513359 -272.52814 
L 399.692109 -272.57064 
L 392.870859 -271.518134 
L 386.049609 -270.624864 
L 379.228359 -270.785599 
L 372.407109 -270.013625 
L 365.585859 -269.798442 
L 358.764609 -269.327149 
L 351.943359 -268.594339 
L 345.122109 -269.599523 
L 338.300859 -268.760187 
L 331.479609 -269.043169 
L 324.658359 -268.668224 
L 317.837109 -268.463929 
L 311.015859 -268.81513 
L 304.194609 -268.506979 
L 297.373359 -268.296477 
L 290.552109 -269.070234 
L 283.730859 -269.123636 
L 276.909609 -269.272085 
L 270.088359 -269.206737 
L 263.267109 -270.225571 
L 256.445859 -270.550974 
L 249.624609 -271.49807 
L 242.803359 -272.136063 
L 235.982109 -272.376147 
L 229.160859 -273.404582 
L 222.339609 -273.40421 
L 215.518359 -273.424946 
L 208.697109 -273.956267 
L 201.875859 -274.077619 
L 195.054609 -274.200077 
L 188.233359 -274.914628 
L 181.412109 -274.75044 
L 174.590859 -273.988332 
L 167.769609 -272.778536 
L 160.948359 -270.339395 
L 154.127109 -268.507438 
L 147.305859 -265.45138 
L 140.484609 -260.653361 
L 133.663359 -256.306909 
L 126.842109 -250.03803 
L 120.020859 -243.478531 
L 113.199609 -232.080052 
L 106.378359 -219.256382 
L 99.557109 -203.929794 
L 92.735859 -179.359279 
L 85.914609 -151.100557 
L 79.093359 -117.178335 
z
" style="stroke: #ffca36; stroke-opacity: 0.2; stroke-width: 1.5"/>
    </defs>
    <g clip-path="url(#pf952d358de)">
     <use xlink:href="#mf3745e8a96" x="0" y="365.301328" style="fill: #ffca36; fill-opacity: 0.2; stroke: #ffca36; stroke-opacity: 0.2; stroke-width: 1.5"/>
    </g>
   </g>
   <g id="line2d_15">
    <path d="M 79.093359 189.052518 
L 85.914609 179.379748 
L 92.735859 173.773976 
L 99.557109 169.677754 
L 106.378359 163.414453 
L 113.199609 160.062462 
L 120.020859 157.020941 
L 126.842109 155.032542 
L 133.663359 153.489551 
L 140.484609 149.106947 
L 147.305859 147.214903 
L 154.127109 144.127763 
L 160.948359 143.969247 
L 167.769609 140.821422 
L 174.590859 139.370971 
L 181.412109 138.400436 
L 188.233359 136.078143 
L 195.054609 137.635258 
L 201.875859 137.167821 
L 208.697109 134.258046 
L 215.518359 133.611479 
L 222.339609 133.719658 
L 229.160859 133.395237 
L 235.982109 129.863427 
L 242.803359 130.210772 
L 249.624609 128.534335 
L 256.445859 128.822191 
L 263.267109 127.888235 
L 270.088359 127.276965 
L 276.909609 126.822986 
L 283.730859 126.176303 
L 290.552109 125.541793 
L 297.373359 123.66182 
L 304.194609 123.18304 
L 311.015859 121.708459 
L 317.837109 120.679107 
L 324.658359 121.277389 
L 331.479609 118.991332 
L 338.300859 119.20635 
L 345.122109 118.284275 
L 351.943359 116.284165 
L 358.764609 117.159159 
L 365.585859 115.697848 
L 372.407109 114.297305 
L 379.228359 114.416196 
L 386.049609 115.063188 
L 392.870859 112.525439 
L 399.692109 112.740668 
L 406.513359 112.763762 
L 413.334609 112.46639 
L 420.155859 109.962984 
L 426.977109 111.43463 
L 433.798359 109.159977 
L 440.619609 110.081888 
L 447.440859 108.455259 
L 454.262109 108.40549 
L 461.083359 109.459703 
L 467.904609 108.071073 
L 474.725859 106.047282 
L 481.547109 106.872809 
L 488.368359 106.381943 
L 495.189609 105.292225 
L 502.010859 105.974792 
L 508.832109 104.046872 
L 515.653359 105.519396 
L 522.474609 106.11926 
L 529.295859 103.652073 
L 536.117109 104.274527 
L 542.938359 104.179287 
L 549.759609 104.094917 
L 556.580859 102.693828 
L 563.402109 104.263134 
L 570.223359 103.136949 
L 577.044609 102.526922 
L 583.865859 102.467324 
L 590.687109 101.688002 
L 597.508359 101.808163 
L 604.329609 101.174049 
L 611.150859 102.310322 
L 617.972109 101.867556 
" clip-path="url(#pf952d358de)" style="fill: none; stroke: #34c6c6; stroke-width: 2.25; stroke-linecap: round"/>
   </g>
   <g id="line2d_16">
    <path d="M 79.093359 112.702173 
L 85.914609 101.775282 
L 92.735859 94.459061 
L 99.557109 87.427826 
L 106.378359 83.828352 
L 113.199609 81.480684 
L 120.020859 78.151013 
L 126.842109 77.974588 
L 133.663359 76.091783 
L 140.484609 75.196217 
L 147.305859 75.090166 
L 154.127109 73.997387 
L 160.948359 73.805211 
L 167.769609 73.796802 
L 174.590859 73.907642 
L 181.412109 74.032514 
L 188.233359 73.697259 
L 195.054609 74.118592 
L 201.875859 73.875242 
L 208.697109 74.309209 
L 215.518359 73.968422 
L 222.339609 74.484605 
L 229.160859 74.600237 
L 235.982109 74.826783 
L 242.803359 74.451061 
L 249.624609 75.085236 
L 256.445859 75.46166 
L 263.267109 75.173707 
L 270.088359 75.748262 
L 276.909609 75.740343 
L 283.730859 75.476202 
L 290.552109 75.601073 
L 297.373359 75.845531 
L 304.194609 76.57881 
L 311.015859 76.463363 
L 317.837109 76.469058 
L 324.658359 76.395662 
L 331.479609 77.184096 
L 338.300859 76.7286 
L 345.122109 77.224473 
L 351.943359 77.447671 
L 358.764609 77.178142 
L 365.585859 77.208166 
L 372.407109 77.262638 
L 379.228359 77.594205 
L 386.049609 77.801651 
L 392.870859 78.056172 
L 399.692109 77.324574 
L 406.513359 77.350504 
L 413.334609 77.930657 
L 420.155859 77.939934 
L 426.977109 77.462708 
L 433.798359 77.536203 
L 440.619609 77.504037 
L 447.440859 77.473907 
L 454.262109 77.411488 
L 461.083359 76.724415 
L 467.904609 77.520822 
L 474.725859 77.587028 
L 481.547109 77.888558 
L 488.368359 77.808954 
L 495.189609 78.266046 
L 502.010859 78.134587 
L 508.832109 78.48054 
L 515.653359 78.266057 
L 522.474609 78.97453 
L 529.295859 78.995699 
L 536.117109 79.109806 
L 542.938359 78.811713 
L 549.759609 79.369443 
L 556.580859 79.038024 
L 563.402109 79.033607 
L 570.223359 79.434297 
L 577.044609 79.972943 
L 583.865859 80.264856 
L 590.687109 79.797375 
L 597.508359 80.467755 
L 604.329609 80.449131 
L 611.150859 80.297111 
L 617.972109 81.088795 
" clip-path="url(#pf952d358de)" style="fill: none; stroke: #52c152; stroke-width: 2.25; stroke-linecap: round"/>
   </g>
   <g id="line2d_17">
    <path d="M 79.093359 146.753099 
L 85.914609 136.601242 
L 92.735859 126.439884 
L 99.557109 116.712934 
L 106.378359 109.245332 
L 113.199609 102.4041 
L 120.020859 96.183918 
L 126.842109 91.833862 
L 133.663359 87.656838 
L 140.484609 85.177172 
L 147.305859 83.583841 
L 154.127109 81.064105 
L 160.948359 80.662973 
L 167.769609 79.262537 
L 174.590859 78.870595 
L 181.412109 79.015874 
L 188.233359 78.861549 
L 195.054609 78.700745 
L 201.875859 78.077243 
L 208.697109 78.552753 
L 215.518359 79.135344 
L 222.339609 79.013402 
L 229.160859 78.994842 
L 235.982109 79.20221 
L 242.803359 79.212476 
L 249.624609 79.536208 
L 256.445859 79.555985 
L 263.267109 80.15187 
L 270.088359 79.331531 
L 276.909609 79.941761 
L 283.730859 79.801606 
L 290.552109 79.883942 
L 297.373359 80.57762 
L 304.194609 80.327796 
L 311.015859 81.097331 
L 317.837109 80.925534 
L 324.658359 80.751651 
L 331.479609 80.453068 
L 338.300859 80.325589 
L 345.122109 80.702967 
L 351.943359 81.036822 
L 358.764609 81.354683 
L 365.585859 80.163406 
L 372.407109 81.092977 
L 379.228359 80.479196 
L 386.049609 80.600188 
L 392.870859 79.529012 
L 399.692109 79.959954 
L 406.513359 79.33554 
L 413.334609 79.130478 
L 420.155859 79.160067 
L 426.977109 78.876589 
L 433.798359 78.948889 
L 440.619609 78.206168 
L 447.440859 78.719542 
L 454.262109 78.410757 
L 461.083359 78.138538 
L 467.904609 77.798863 
L 474.725859 78.285506 
L 481.547109 78.093586 
L 488.368359 77.792323 
L 495.189609 77.903612 
L 502.010859 78.016756 
L 508.832109 78.032954 
L 515.653359 77.775648 
L 522.474609 77.549567 
L 529.295859 78.104885 
L 536.117109 77.53875 
L 542.938359 77.773339 
L 549.759609 77.948975 
L 556.580859 78.175631 
L 563.402109 78.161042 
L 570.223359 77.829596 
L 577.044609 78.562043 
L 583.865859 78.01983 
L 590.687109 78.726335 
L 597.508359 78.27618 
L 604.329609 78.445046 
L 611.150859 78.826407 
L 617.972109 78.691165 
" clip-path="url(#pf952d358de)" style="fill: none; stroke: #ac145a; stroke-width: 2.25; stroke-linecap: round"/>
   </g>
   <g id="line2d_18">
    <path d="M 79.093359 215.066362 
L 85.914609 213.060701 
L 92.735859 211.644266 
L 99.557109 210.562069 
L 106.378359 209.45919 
L 113.199609 208.615428 
L 120.020859 207.681894 
L 126.842109 206.954802 
L 133.663359 206.972121 
L 140.484609 206.438755 
L 147.305859 206.437782 
L 154.127109 206.091673 
L 160.948359 206.34287 
L 167.769609 206.392646 
L 174.590859 206.499625 
L 181.412109 206.660895 
L 188.233359 206.750686 
L 195.054609 206.990095 
L 201.875859 207.133805 
L 208.697109 207.584247 
L 215.518359 207.771893 
L 222.339609 207.968639 
L 229.160859 208.190945 
L 235.982109 208.555037 
L 242.803359 208.760627 
L 249.624609 209.202379 
L 256.445859 209.652087 
L 263.267109 209.727714 
L 270.088359 209.91584 
L 276.909609 210.06737 
L 283.730859 210.519266 
L 290.552109 210.515087 
L 297.373359 210.561602 
L 304.194609 210.847383 
L 311.015859 210.850216 
L 317.837109 211.181355 
L 324.658359 211.086422 
L 331.479609 211.511125 
L 338.300859 211.725172 
L 345.122109 211.836588 
L 351.943359 212.033416 
L 358.764609 212.094456 
L 365.585859 211.923764 
L 372.407109 211.877163 
L 379.228359 212.071618 
L 386.049609 211.919945 
L 392.870859 211.867879 
L 399.692109 211.645376 
L 406.513359 211.740686 
L 413.334609 211.631926 
L 420.155859 211.749525 
L 426.977109 211.586321 
L 433.798359 211.889451 
L 440.619609 211.666888 
L 447.440859 211.786943 
L 454.262109 211.915545 
L 461.083359 211.709036 
L 467.904609 211.801145 
L 474.725859 211.914207 
L 481.547109 211.933378 
L 488.368359 211.931806 
L 495.189609 211.976454 
L 502.010859 212.307584 
L 508.832109 212.115867 
L 515.653359 212.152737 
L 522.474609 212.200233 
L 529.295859 212.223667 
L 536.117109 212.503569 
L 542.938359 212.492894 
L 549.759609 212.556349 
L 556.580859 212.600582 
L 563.402109 212.510532 
L 570.223359 212.569192 
L 577.044609 212.902625 
L 583.865859 212.740574 
L 590.687109 213.027407 
L 597.508359 213.082873 
L 604.329609 213.199823 
L 611.150859 213.388653 
L 617.972109 213.48875 
" clip-path="url(#pf952d358de)" style="fill: none; stroke: #500778; stroke-width: 2.25; stroke-linecap: round"/>
   </g>
   <g id="line2d_19">
    <path d="M 79.093359 259.942455 
L 85.914609 226.262741 
L 92.735859 196.257945 
L 99.557109 172.746848 
L 106.378359 156.341491 
L 113.199609 141.915956 
L 120.020859 129.308768 
L 126.842109 121.405339 
L 133.663359 114.466436 
L 140.484609 108.93655 
L 147.305859 103.762512 
L 154.127109 100.09636 
L 160.948359 98.237602 
L 167.769609 95.368198 
L 174.590859 93.870757 
L 181.412109 92.378391 
L 188.233359 92.311214 
L 195.054609 92.66166 
L 201.875859 92.891215 
L 208.697109 93.290087 
L 215.518359 93.947083 
L 222.339609 93.899583 
L 229.160859 94.178017 
L 235.982109 95.608021 
L 242.803359 95.840404 
L 249.624609 96.68061 
L 256.445859 97.75654 
L 263.267109 97.810452 
L 270.088359 98.518811 
L 276.909609 98.506814 
L 283.730859 99.268668 
L 290.552109 99.127883 
L 297.373359 100.063153 
L 304.194609 100.134531 
L 311.015859 100.574256 
L 317.837109 100.851142 
L 324.658359 101.159084 
L 331.479609 101.351101 
L 338.300859 101.42147 
L 345.122109 101.212781 
L 351.943359 101.758795 
L 358.764609 101.590898 
L 365.585859 100.762532 
L 372.407109 100.250254 
L 379.228359 99.366964 
L 386.049609 99.188213 
L 392.870859 97.701224 
L 399.692109 96.527815 
L 406.513359 96.293473 
L 413.334609 95.229652 
L 420.155859 94.606116 
L 426.977109 93.397693 
L 433.798359 93.234937 
L 440.619609 92.793553 
L 447.440859 92.181163 
L 454.262109 91.782713 
L 461.083359 91.363358 
L 467.904609 91.552168 
L 474.725859 90.960994 
L 481.547109 90.787291 
L 488.368359 90.425953 
L 495.189609 90.386474 
L 502.010859 90.431199 
L 508.832109 90.036937 
L 515.653359 89.906643 
L 522.474609 89.391449 
L 529.295859 89.432223 
L 536.117109 89.286954 
L 542.938359 89.680284 
L 549.759609 89.226144 
L 556.580859 89.387296 
L 563.402109 89.792917 
L 570.223359 90.048642 
L 577.044609 89.592856 
L 583.865859 90.385505 
L 590.687109 90.878906 
L 597.508359 91.067621 
L 604.329609 91.085315 
L 611.150859 91.571588 
L 617.972109 91.895261 
" clip-path="url(#pf952d358de)" style="fill: none; stroke: #ffca36; stroke-width: 2.25; stroke-linecap: round"/>
   </g>
   <g id="patch_3">
    <path d="M 72.272109 310.05 
L 72.272109 70.95 
" style="fill: none; stroke: #262626; stroke-width: 1.875; stroke-linejoin: miter; stroke-linecap: square"/>
   </g>
   <g id="patch_4">
    <path d="M 617.972109 310.05 
L 617.972109 70.95 
" style="fill: none; stroke: #262626; stroke-width: 1.875; stroke-linejoin: miter; stroke-linecap: square"/>
   </g>
   <g id="patch_5">
    <path d="M 72.272109 310.05 
L 617.972109 310.05 
" style="fill: none; stroke: #262626; stroke-width: 1.875; stroke-linejoin: miter; stroke-linecap: square"/>
   </g>
  </g>
  <g id="axes_2">
   <g id="matplotlib.axis_3">
    <g id="ytick_6">
     <g id="line2d_20">
      <defs>
       <path id="m1e57e69467" d="M 0 0 
L 9 0 
" style="stroke: #262626; stroke-width: 1.875"/>
      </defs>
      <g>
       <use xlink:href="#m1e57e69467" x="617.972109" y="291.24889" style="fill: #262626; stroke: #262626; stroke-width: 1.875"/>
      </g>
     </g>
     <g id="text_17">
      <!-- 400 -->
      <g style="fill: #262626" transform="translate(630.472109 297.154086) scale(0.165 -0.165)">
       <defs>
        <path id="ArialMT-2212" d="M 3381 1997 
L 356 1997 
L 356 2522 
L 3381 2522 
L 3381 1997 
z
" transform="scale(0.015625)"/>
       </defs>
       <use xlink:href="#ArialMT-2212"/>
       <use xlink:href="#ArialMT-34" transform="translate(58.398438 0)"/>
       <use xlink:href="#ArialMT-30" transform="translate(114.013672 0)"/>
       <use xlink:href="#ArialMT-30" transform="translate(169.628906 0)"/>
      </g>
     </g>
    </g>
    <g id="ytick_7">
     <g id="line2d_21">
      <g>
       <use xlink:href="#m1e57e69467" x="617.972109" y="237.608809" style="fill: #262626; stroke: #262626; stroke-width: 1.875"/>
      </g>
     </g>
     <g id="text_18">
      <!-- 300 -->
      <g style="fill: #262626" transform="translate(630.472109 243.514005) scale(0.165 -0.165)">
       <use xlink:href="#ArialMT-2212"/>
       <use xlink:href="#ArialMT-33" transform="translate(58.398438 0)"/>
       <use xlink:href="#ArialMT-30" transform="translate(114.013672 0)"/>
       <use xlink:href="#ArialMT-30" transform="translate(169.628906 0)"/>
      </g>
     </g>
    </g>
    <g id="ytick_8">
     <g id="line2d_22">
      <g>
       <use xlink:href="#m1e57e69467" x="617.972109" y="183.968729" style="fill: #262626; stroke: #262626; stroke-width: 1.875"/>
      </g>
     </g>
     <g id="text_19">
      <!-- 200 -->
      <g style="fill: #262626" transform="translate(630.472109 189.873924) scale(0.165 -0.165)">
       <use xlink:href="#ArialMT-2212"/>
       <use xlink:href="#ArialMT-32" transform="translate(58.398438 0)"/>
       <use xlink:href="#ArialMT-30" transform="translate(114.013672 0)"/>
       <use xlink:href="#ArialMT-30" transform="translate(169.628906 0)"/>
      </g>
     </g>
    </g>
    <g id="ytick_9">
     <g id="line2d_23">
      <g>
       <use xlink:href="#m1e57e69467" x="617.972109" y="130.328648" style="fill: #262626; stroke: #262626; stroke-width: 1.875"/>
      </g>
     </g>
     <g id="text_20">
      <!-- 100 -->
      <g style="fill: #262626" transform="translate(630.472109 136.233843) scale(0.165 -0.165)">
       <use xlink:href="#ArialMT-2212"/>
       <use xlink:href="#ArialMT-31" transform="translate(58.398438 0)"/>
       <use xlink:href="#ArialMT-30" transform="translate(114.013672 0)"/>
       <use xlink:href="#ArialMT-30" transform="translate(169.628906 0)"/>
      </g>
     </g>
    </g>
    <g id="ytick_10">
     <g id="line2d_24">
      <g>
       <use xlink:href="#m1e57e69467" x="617.972109" y="76.688567" style="fill: #262626; stroke: #262626; stroke-width: 1.875"/>
      </g>
     </g>
     <g id="text_21">
      <!-- 0 -->
      <g style="fill: #262626" transform="translate(630.472109 82.593762) scale(0.165 -0.165)">
       <use xlink:href="#ArialMT-30"/>
      </g>
     </g>
    </g>
    <g id="text_22">
     <!-- Policy gradient loss -->
     <g style="fill: #1a1a1a" transform="translate(684.519844 268.033594) rotate(-90) scale(0.18 -0.18)">
      <defs>
       <path id="ArialMT-50" d="M 494 0 
L 494 4581 
L 2222 4581 
Q 2678 4581 2919 4538 
Q 3256 4481 3484 4323 
Q 3713 4166 3852 3881 
Q 3991 3597 3991 3256 
Q 3991 2672 3619 2267 
Q 3247 1863 2275 1863 
L 1100 1863 
L 1100 0 
L 494 0 
z
M 1100 2403 
L 2284 2403 
Q 2872 2403 3119 2622 
Q 3366 2841 3366 3238 
Q 3366 3525 3220 3729 
Q 3075 3934 2838 4000 
Q 2684 4041 2272 4041 
L 1100 4041 
L 1100 2403 
z
" transform="scale(0.015625)"/>
       <path id="ArialMT-79" d="M 397 -1278 
L 334 -750 
Q 519 -800 656 -800 
Q 844 -800 956 -737 
Q 1069 -675 1141 -563 
Q 1194 -478 1313 -144 
Q 1328 -97 1363 -6 
L 103 3319 
L 709 3319 
L 1400 1397 
Q 1534 1031 1641 628 
Q 1738 1016 1872 1384 
L 2581 3319 
L 3144 3319 
L 1881 -56 
Q 1678 -603 1566 -809 
Q 1416 -1088 1222 -1217 
Q 1028 -1347 759 -1347 
Q 597 -1347 397 -1278 
z
" transform="scale(0.015625)"/>
       <path id="ArialMT-67" d="M 319 -275 
L 866 -356 
Q 900 -609 1056 -725 
Q 1266 -881 1628 -881 
Q 2019 -881 2231 -725 
Q 2444 -569 2519 -288 
Q 2563 -116 2559 434 
Q 2191 0 1641 0 
Q 956 0 581 494 
Q 206 988 206 1678 
Q 206 2153 378 2554 
Q 550 2956 876 3175 
Q 1203 3394 1644 3394 
Q 2231 3394 2613 2919 
L 2613 3319 
L 3131 3319 
L 3131 450 
Q 3131 -325 2973 -648 
Q 2816 -972 2473 -1159 
Q 2131 -1347 1631 -1347 
Q 1038 -1347 672 -1080 
Q 306 -813 319 -275 
z
M 784 1719 
Q 784 1066 1043 766 
Q 1303 466 1694 466 
Q 2081 466 2343 764 
Q 2606 1063 2606 1700 
Q 2606 2309 2336 2618 
Q 2066 2928 1684 2928 
Q 1309 2928 1046 2623 
Q 784 2319 784 1719 
z
" transform="scale(0.015625)"/>
       <path id="ArialMT-64" d="M 2575 0 
L 2575 419 
Q 2259 -75 1647 -75 
Q 1250 -75 917 144 
Q 584 363 401 755 
Q 219 1147 219 1656 
Q 219 2153 384 2558 
Q 550 2963 881 3178 
Q 1213 3394 1622 3394 
Q 1922 3394 2156 3267 
Q 2391 3141 2538 2938 
L 2538 4581 
L 3097 4581 
L 3097 0 
L 2575 0 
z
M 797 1656 
Q 797 1019 1065 703 
Q 1334 388 1700 388 
Q 2069 388 2326 689 
Q 2584 991 2584 1609 
Q 2584 2291 2321 2609 
Q 2059 2928 1675 2928 
Q 1300 2928 1048 2622 
Q 797 2316 797 1656 
z
" transform="scale(0.015625)"/>
       <path id="ArialMT-6e" d="M 422 0 
L 422 3319 
L 928 3319 
L 928 2847 
Q 1294 3394 1984 3394 
Q 2284 3394 2536 3286 
Q 2788 3178 2913 3003 
Q 3038 2828 3088 2588 
Q 3119 2431 3119 2041 
L 3119 0 
L 2556 0 
L 2556 2019 
Q 2556 2363 2490 2533 
Q 2425 2703 2258 2804 
Q 2091 2906 1866 2906 
Q 1506 2906 1245 2678 
Q 984 2450 984 1813 
L 984 0 
L 422 0 
z
" transform="scale(0.015625)"/>
       <path id="ArialMT-73" d="M 197 991 
L 753 1078 
Q 800 744 1014 566 
Q 1228 388 1613 388 
Q 2000 388 2187 545 
Q 2375 703 2375 916 
Q 2375 1106 2209 1216 
Q 2094 1291 1634 1406 
Q 1016 1563 777 1677 
Q 538 1791 414 1992 
Q 291 2194 291 2438 
Q 291 2659 392 2848 
Q 494 3038 669 3163 
Q 800 3259 1026 3326 
Q 1253 3394 1513 3394 
Q 1903 3394 2198 3281 
Q 2494 3169 2634 2976 
Q 2775 2784 2828 2463 
L 2278 2388 
Q 2241 2644 2061 2787 
Q 1881 2931 1553 2931 
Q 1166 2931 1000 2803 
Q 834 2675 834 2503 
Q 834 2394 903 2306 
Q 972 2216 1119 2156 
Q 1203 2125 1616 2013 
Q 2213 1853 2448 1751 
Q 2684 1650 2818 1456 
Q 2953 1263 2953 975 
Q 2953 694 2789 445 
Q 2625 197 2315 61 
Q 2006 -75 1616 -75 
Q 969 -75 630 194 
Q 291 463 197 991 
z
" transform="scale(0.015625)"/>
      </defs>
      <use xlink:href="#ArialMT-50"/>
      <use xlink:href="#ArialMT-6f" transform="translate(66.699219 0)"/>
      <use xlink:href="#ArialMT-6c" transform="translate(122.314453 0)"/>
      <use xlink:href="#ArialMT-69" transform="translate(144.53125 0)"/>
      <use xlink:href="#ArialMT-63" transform="translate(166.748047 0)"/>
      <use xlink:href="#ArialMT-79" transform="translate(216.748047 0)"/>
      <use xlink:href="#ArialMT-20" transform="translate(266.748047 0)"/>
      <use xlink:href="#ArialMT-67" transform="translate(294.53125 0)"/>
      <use xlink:href="#ArialMT-72" transform="translate(350.146484 0)"/>
      <use xlink:href="#ArialMT-61" transform="translate(383.447266 0)"/>
      <use xlink:href="#ArialMT-64" transform="translate(439.0625 0)"/>
      <use xlink:href="#ArialMT-69" transform="translate(494.677734 0)"/>
      <use xlink:href="#ArialMT-65" transform="translate(516.894531 0)"/>
      <use xlink:href="#ArialMT-6e" transform="translate(572.509766 0)"/>
      <use xlink:href="#ArialMT-74" transform="translate(628.125 0)"/>
      <use xlink:href="#ArialMT-20" transform="translate(655.908203 0)"/>
      <use xlink:href="#ArialMT-6c" transform="translate(683.691406 0)"/>
      <use xlink:href="#ArialMT-6f" transform="translate(705.908203 0)"/>
      <use xlink:href="#ArialMT-73" transform="translate(761.523438 0)"/>
      <use xlink:href="#ArialMT-73" transform="translate(811.523438 0)"/>
     </g>
    </g>
   </g>
   <g id="FillBetweenPolyCollection_6">
    <defs>
     <path id="m858eb02e6f" d="M 79.093359 -283.483146 
L 79.093359 -268.732336 
L 85.914609 -242.79474 
L 92.735859 -203.445815 
L 99.557109 -171.225928 
L 106.378359 -147.689931 
L 113.199609 -131.076108 
L 120.020859 -110.935834 
L 126.842109 -105.701659 
L 133.663359 -100.223476 
L 140.484609 -82.082734 
L 147.305859 -77.383274 
L 154.127109 -84.501758 
L 160.948359 -73.513498 
L 167.769609 -67.115372 
L 174.590859 -66.276318 
L 181.412109 -74.141665 
L 188.233359 -66.11951 
L 195.054609 -73.557736 
L 201.875859 -67.220672 
L 208.697109 -71.627575 
L 215.518359 -73.891275 
L 222.339609 -84.468053 
L 229.160859 -82.275267 
L 235.982109 -88.140663 
L 242.803359 -89.859284 
L 249.624609 -87.959531 
L 256.445859 -90.625702 
L 263.267109 -98.094027 
L 270.088359 -96.980801 
L 276.909609 -102.728249 
L 283.730859 -104.251397 
L 290.552109 -104.11516 
L 297.373359 -99.83971 
L 304.194609 -106.120644 
L 311.015859 -107.906234 
L 317.837109 -111.050335 
L 324.658359 -112.506185 
L 331.479609 -109.226479 
L 338.300859 -116.02562 
L 345.122109 -112.586523 
L 351.943359 -117.388424 
L 358.764609 -111.835004 
L 365.585859 -113.486539 
L 372.407109 -114.164833 
L 379.228359 -119.11231 
L 386.049609 -125.406001 
L 392.870859 -122.976608 
L 399.692109 -122.094988 
L 406.513359 -126.210786 
L 413.334609 -131.564394 
L 420.155859 -125.29377 
L 426.977109 -130.542424 
L 433.798359 -127.693299 
L 440.619609 -135.50579 
L 447.440859 -131.901123 
L 454.262109 -129.053064 
L 461.083359 -131.326841 
L 467.904609 -135.753077 
L 474.725859 -133.944775 
L 481.547109 -138.799863 
L 488.368359 -139.61221 
L 495.189609 -146.73411 
L 502.010859 -142.642694 
L 508.832109 -147.160745 
L 515.653359 -142.040804 
L 522.474609 -138.24691 
L 529.295859 -148.849789 
L 536.117109 -148.144443 
L 542.938359 -145.425776 
L 549.759609 -146.291848 
L 556.580859 -148.039036 
L 563.402109 -152.72915 
L 570.223359 -151.136742 
L 577.044609 -154.286758 
L 583.865859 -159.411422 
L 590.687109 -160.307422 
L 597.508359 -152.994242 
L 604.329609 -161.357368 
L 611.150859 -159.67405 
L 617.972109 -165.483716 
L 617.972109 -183.323395 
L 617.972109 -183.323395 
L 611.150859 -184.781094 
L 604.329609 -194.18094 
L 597.508359 -180.401048 
L 590.687109 -179.275402 
L 583.865859 -185.259094 
L 577.044609 -175.319541 
L 570.223359 -177.572467 
L 563.402109 -172.310194 
L 556.580859 -171.843755 
L 549.759609 -185.421204 
L 542.938359 -167.979658 
L 536.117109 -170.022493 
L 529.295859 -171.468375 
L 522.474609 -160.576831 
L 515.653359 -160.709429 
L 508.832109 -159.830695 
L 502.010859 -166.803428 
L 495.189609 -184.407013 
L 488.368359 -167.828767 
L 481.547109 -163.456617 
L 474.725859 -156.992407 
L 467.904609 -182.338066 
L 461.083359 -159.27202 
L 454.262109 -161.724133 
L 447.440859 -159.537619 
L 440.619609 -160.271752 
L 433.798359 -162.731476 
L 426.977109 -174.851044 
L 420.155859 -154.717609 
L 413.334609 -157.25685 
L 406.513359 -155.205026 
L 399.692109 -158.000553 
L 392.870859 -152.616931 
L 386.049609 -150.181339 
L 379.228359 -149.863373 
L 372.407109 -158.209509 
L 365.585859 -148.276001 
L 358.764609 -146.124372 
L 351.943359 -150.370386 
L 345.122109 -143.841836 
L 338.300859 -142.160781 
L 331.479609 -140.567099 
L 324.658359 -145.077031 
L 317.837109 -141.857444 
L 311.015859 -144.601477 
L 304.194609 -136.899088 
L 297.373359 -140.057107 
L 290.552109 -133.773281 
L 283.730859 -131.618888 
L 276.909609 -132.565705 
L 270.088359 -127.974386 
L 263.267109 -121.476167 
L 256.445859 -123.464128 
L 249.624609 -119.696438 
L 242.803359 -118.193027 
L 235.982109 -126.679415 
L 229.160859 -120.67033 
L 222.339609 -113.986246 
L 215.518359 -112.41363 
L 208.697109 -106.168787 
L 201.875859 -107.435597 
L 195.054609 -103.931609 
L 188.233359 -107.737815 
L 181.412109 -109.943563 
L 174.590859 -103.150745 
L 167.769609 -110.30273 
L 160.948359 -110.210322 
L 154.127109 -114.073359 
L 147.305859 -121.228993 
L 140.484609 -122.805888 
L 133.663359 -135.27196 
L 126.842109 -143.812375 
L 120.020859 -150.251272 
L 113.199609 -161.712982 
L 106.378359 -178.566673 
L 99.557109 -200.594782 
L 92.735859 -224.248212 
L 85.914609 -255.830768 
L 79.093359 -283.483146 
z
" style="stroke: #1a1a1a; stroke-opacity: 0.2; stroke-width: 1.5"/>
    </defs>
    <g clip-path="url(#pf952d358de)">
     <use xlink:href="#m858eb02e6f" x="0" y="365.301328" style="fill: #1a1a1a; fill-opacity: 0.2; stroke: #1a1a1a; stroke-opacity: 0.2; stroke-width: 1.5"/>
    </g>
   </g>
   <g id="line2d_25">
    <path d="M 79.093359 90.365442 
L 85.914609 115.785303 
L 92.735859 150.972869 
L 99.557109 178.237137 
L 106.378359 200.76108 
L 113.199609 218.514754 
L 120.020859 232.798493 
L 126.842109 241.937293 
L 133.663359 249.252063 
L 140.484609 261.12585 
L 147.305859 267.062097 
L 154.127109 265.285534 
L 160.948359 273.161515 
L 167.769609 275.423544 
L 174.590859 281.288614 
L 181.412109 272.982896 
L 188.233359 276.106997 
L 195.054609 275.40284 
L 201.875859 277.694252 
L 208.697109 274.5335 
L 215.518359 272.310635 
L 222.339609 265.250618 
L 229.160859 263.750159 
L 235.982109 258.914568 
L 242.803359 260.887508 
L 249.624609 261.901842 
L 256.445859 257.853252 
L 263.267109 254.798383 
L 270.088359 253.899748 
L 276.909609 247.627926 
L 283.730859 246.790425 
L 290.552109 246.124793 
L 297.373359 245.690346 
L 304.194609 244.211922 
L 311.015859 237.893334 
L 317.837109 237.294131 
L 324.658359 235.528273 
L 331.479609 238.321287 
L 338.300859 235.740595 
L 345.122109 236.753015 
L 351.943359 230.928321 
L 358.764609 234.371495 
L 365.585859 232.776627 
L 372.407109 225.988583 
L 379.228359 229.961085 
L 386.049609 226.384695 
L 392.870859 226.173628 
L 399.692109 223.665095 
L 406.513359 223.135947 
L 413.334609 220.538222 
L 420.155859 223.59053 
L 426.977109 214.198215 
L 433.798359 218.261264 
L 440.619609 217.563127 
L 447.440859 218.500069 
L 454.262109 219.585497 
L 461.083359 218.792308 
L 467.904609 209.285153 
L 474.725859 218.537543 
L 481.547109 213.436444 
L 488.368359 210.978575 
L 495.189609 200.593741 
L 502.010859 209.838048 
L 508.832109 211.428631 
L 515.653359 212.653751 
L 522.474609 214.643133 
L 529.295859 204.177548 
L 536.117109 205.126627 
L 542.938359 207.593315 
L 549.759609 200.631219 
L 556.580859 204.510712 
L 563.402109 203.644741 
L 570.223359 201.341115 
L 577.044609 200.802363 
L 583.865859 193.675056 
L 590.687109 195.484228 
L 597.508359 198.809102 
L 604.329609 188.022169 
L 611.150859 191.968471 
L 617.972109 191.162694 
" clip-path="url(#pf952d358de)" style="fill: none; stroke-dasharray: 8.325,3.6; stroke-dashoffset: 0; stroke: #1a1a1a; stroke-width: 2.25"/>
   </g>
   <g id="patch_6">
    <path d="M 72.272109 310.05 
L 72.272109 70.95 
" style="fill: none; stroke: #262626; stroke-width: 1.875; stroke-linejoin: miter; stroke-linecap: square"/>
   </g>
   <g id="patch_7">
    <path d="M 617.972109 310.05 
L 617.972109 70.95 
" style="fill: none; stroke: #262626; stroke-width: 1.875; stroke-linejoin: miter; stroke-linecap: square"/>
   </g>
   <g id="patch_8">
    <path d="M 72.272109 310.05 
L 617.972109 310.05 
" style="fill: none; stroke: #262626; stroke-width: 1.875; stroke-linejoin: miter; stroke-linecap: square"/>
   </g>
  </g>
  <g id="legend_1">
   <g id="line2d_26">
    <path d="M 114.209648 19.835391 
L 130.709648 19.835391 
L 147.209648 19.835391 
" style="fill: none; stroke: #34c6c6; stroke-width: 2.25; stroke-linecap: round"/>
   </g>
   <g id="text_23">
    <!-- Validity -->
    <g style="fill: #262626" transform="translate(160.409648 25.610391) scale(0.165 -0.165)">
     <defs>
      <path id="ArialMT-56" d="M 1803 0 
L 28 4581 
L 684 4581 
L 1875 1253 
Q 2019 853 2116 503 
Q 2222 878 2363 1253 
L 3600 4581 
L 4219 4581 
L 2425 0 
L 1803 0 
z
" transform="scale(0.015625)"/>
     </defs>
     <use xlink:href="#ArialMT-56"/>
     <use xlink:href="#ArialMT-61" transform="translate(59.324219 0)"/>
     <use xlink:href="#ArialMT-6c" transform="translate(114.939453 0)"/>
     <use xlink:href="#ArialMT-69" transform="translate(137.15625 0)"/>
     <use xlink:href="#ArialMT-64" transform="translate(159.373047 0)"/>
     <use xlink:href="#ArialMT-69" transform="translate(214.988281 0)"/>
     <use xlink:href="#ArialMT-74" transform="translate(237.205078 0)"/>
     <use xlink:href="#ArialMT-79" transform="translate(264.988281 0)"/>
    </g>
   </g>
   <g id="line2d_27">
    <path d="M 114.209648 43.368516 
L 130.709648 43.368516 
L 147.209648 43.368516 
" style="fill: none; stroke: #52c152; stroke-width: 2.25; stroke-linecap: round"/>
   </g>
   <g id="text_24">
    <!-- Uniqueness -->
    <g style="fill: #262626" transform="translate(160.409648 49.143516) scale(0.165 -0.165)">
     <defs>
      <path id="ArialMT-55" d="M 3500 4581 
L 4106 4581 
L 4106 1934 
Q 4106 1244 3950 837 
Q 3794 431 3386 176 
Q 2978 -78 2316 -78 
Q 1672 -78 1262 144 
Q 853 366 678 786 
Q 503 1206 503 1934 
L 503 4581 
L 1109 4581 
L 1109 1938 
Q 1109 1341 1220 1058 
Q 1331 775 1601 622 
Q 1872 469 2263 469 
Q 2931 469 3215 772 
Q 3500 1075 3500 1938 
L 3500 4581 
z
" transform="scale(0.015625)"/>
      <path id="ArialMT-71" d="M 2538 -1272 
L 2538 353 
Q 2406 169 2170 47 
Q 1934 -75 1669 -75 
Q 1078 -75 651 397 
Q 225 869 225 1691 
Q 225 2191 398 2587 
Q 572 2984 901 3189 
Q 1231 3394 1625 3394 
Q 2241 3394 2594 2875 
L 2594 3319 
L 3100 3319 
L 3100 -1272 
L 2538 -1272 
z
M 803 1669 
Q 803 1028 1072 708 
Q 1341 388 1716 388 
Q 2075 388 2334 692 
Q 2594 997 2594 1619 
Q 2594 2281 2320 2615 
Q 2047 2950 1678 2950 
Q 1313 2950 1058 2639 
Q 803 2328 803 1669 
z
" transform="scale(0.015625)"/>
     </defs>
     <use xlink:href="#ArialMT-55"/>
     <use xlink:href="#ArialMT-6e" transform="translate(72.216797 0)"/>
     <use xlink:href="#ArialMT-69" transform="translate(127.832031 0)"/>
     <use xlink:href="#ArialMT-71" transform="translate(150.048828 0)"/>
     <use xlink:href="#ArialMT-75" transform="translate(205.664062 0)"/>
     <use xlink:href="#ArialMT-65" transform="translate(261.279297 0)"/>
     <use xlink:href="#ArialMT-6e" transform="translate(316.894531 0)"/>
     <use xlink:href="#ArialMT-65" transform="translate(372.509766 0)"/>
     <use xlink:href="#ArialMT-73" transform="translate(428.125 0)"/>
     <use xlink:href="#ArialMT-73" transform="translate(478.125 0)"/>
    </g>
   </g>
   <g id="line2d_28">
    <path d="M 280.545117 19.835391 
L 297.045117 19.835391 
L 313.545117 19.835391 
" style="fill: none; stroke: #ac145a; stroke-width: 2.25; stroke-linecap: round"/>
   </g>
   <g id="text_25">
    <!-- Novelty -->
    <g style="fill: #262626" transform="translate(326.745117 25.610391) scale(0.165 -0.165)">
     <defs>
      <path id="ArialMT-4e" d="M 488 0 
L 488 4581 
L 1109 4581 
L 3516 984 
L 3516 4581 
L 4097 4581 
L 4097 0 
L 3475 0 
L 1069 3600 
L 1069 0 
L 488 0 
z
" transform="scale(0.015625)"/>
     </defs>
     <use xlink:href="#ArialMT-4e"/>
     <use xlink:href="#ArialMT-6f" transform="translate(72.216797 0)"/>
     <use xlink:href="#ArialMT-76" transform="translate(127.832031 0)"/>
     <use xlink:href="#ArialMT-65" transform="translate(177.832031 0)"/>
     <use xlink:href="#ArialMT-6c" transform="translate(233.447266 0)"/>
     <use xlink:href="#ArialMT-74" transform="translate(255.664062 0)"/>
     <use xlink:href="#ArialMT-79" transform="translate(283.447266 0)"/>
    </g>
   </g>
   <g id="line2d_29">
    <path d="M 280.545117 43.368516 
L 297.045117 43.368516 
L 313.545117 43.368516 
" style="fill: none; stroke: #500778; stroke-width: 2.25; stroke-linecap: round"/>
   </g>
   <g id="text_26">
    <!-- Diversity -->
    <g style="fill: #262626" transform="translate(326.745117 49.143516) scale(0.165 -0.165)">
     <defs>
      <path id="ArialMT-44" d="M 494 0 
L 494 4581 
L 2072 4581 
Q 2606 4581 2888 4516 
Q 3281 4425 3559 4188 
Q 3922 3881 4101 3404 
Q 4281 2928 4281 2316 
Q 4281 1794 4159 1391 
Q 4038 988 3847 723 
Q 3656 459 3429 307 
Q 3203 156 2883 78 
Q 2563 0 2147 0 
L 494 0 
z
M 1100 541 
L 2078 541 
Q 2531 541 2789 625 
Q 3047 709 3200 863 
Q 3416 1078 3536 1442 
Q 3656 1806 3656 2325 
Q 3656 3044 3420 3430 
Q 3184 3816 2847 3947 
Q 2603 4041 2063 4041 
L 1100 4041 
L 1100 541 
z
" transform="scale(0.015625)"/>
     </defs>
     <use xlink:href="#ArialMT-44"/>
     <use xlink:href="#ArialMT-69" transform="translate(72.216797 0)"/>
     <use xlink:href="#ArialMT-76" transform="translate(94.433594 0)"/>
     <use xlink:href="#ArialMT-65" transform="translate(144.433594 0)"/>
     <use xlink:href="#ArialMT-72" transform="translate(200.048828 0)"/>
     <use xlink:href="#ArialMT-73" transform="translate(233.349609 0)"/>
     <use xlink:href="#ArialMT-69" transform="translate(283.349609 0)"/>
     <use xlink:href="#ArialMT-74" transform="translate(305.566406 0)"/>
     <use xlink:href="#ArialMT-79" transform="translate(333.349609 0)"/>
    </g>
   </g>
   <g id="line2d_30">
    <path d="M 422.996836 19.835391 
L 439.496836 19.835391 
L 455.996836 19.835391 
" style="fill: none; stroke: #ffca36; stroke-width: 2.25; stroke-linecap: round"/>
   </g>
   <g id="text_27">
    <!-- Energy Density -->
    <g style="fill: #262626" transform="translate(469.196836 25.610391) scale(0.165 -0.165)">
     <use xlink:href="#ArialMT-45"/>
     <use xlink:href="#ArialMT-6e" transform="translate(66.699219 0)"/>
     <use xlink:href="#ArialMT-65" transform="translate(122.314453 0)"/>
     <use xlink:href="#ArialMT-72" transform="translate(177.929688 0)"/>
     <use xlink:href="#ArialMT-67" transform="translate(211.230469 0)"/>
     <use xlink:href="#ArialMT-79" transform="translate(266.845703 0)"/>
     <use xlink:href="#ArialMT-20" transform="translate(316.845703 0)"/>
     <use xlink:href="#ArialMT-44" transform="translate(344.628906 0)"/>
     <use xlink:href="#ArialMT-65" transform="translate(416.845703 0)"/>
     <use xlink:href="#ArialMT-6e" transform="translate(472.460938 0)"/>
     <use xlink:href="#ArialMT-73" transform="translate(528.076172 0)"/>
     <use xlink:href="#ArialMT-69" transform="translate(578.076172 0)"/>
     <use xlink:href="#ArialMT-74" transform="translate(600.292969 0)"/>
     <use xlink:href="#ArialMT-79" transform="translate(628.076172 0)"/>
    </g>
   </g>
   <g id="line2d_31">
    <path d="M 422.996836 43.368516 
L 439.496836 43.368516 
L 455.996836 43.368516 
" style="fill: none; stroke-dasharray: 8.325,3.6; stroke-dashoffset: 0; stroke: #1a1a1a; stroke-width: 2.25"/>
   </g>
   <g id="text_28">
    <!-- PG Loss -->
    <g style="fill: #262626" transform="translate(469.196836 49.143516) scale(0.165 -0.165)">
     <defs>
      <path id="ArialMT-47" d="M 2638 1797 
L 2638 2334 
L 4578 2338 
L 4578 638 
Q 4131 281 3656 101 
Q 3181 -78 2681 -78 
Q 2006 -78 1454 211 
Q 903 500 622 1047 
Q 341 1594 341 2269 
Q 341 2938 620 3517 
Q 900 4097 1425 4378 
Q 1950 4659 2634 4659 
Q 3131 4659 3532 4498 
Q 3934 4338 4162 4050 
Q 4391 3763 4509 3300 
L 3963 3150 
Q 3859 3500 3706 3700 
Q 3553 3900 3268 4020 
Q 2984 4141 2638 4141 
Q 2222 4141 1919 4014 
Q 1616 3888 1430 3681 
Q 1244 3475 1141 3228 
Q 966 2803 966 2306 
Q 966 1694 1177 1281 
Q 1388 869 1791 669 
Q 2194 469 2647 469 
Q 3041 469 3416 620 
Q 3791 772 3984 944 
L 3984 1797 
L 2638 1797 
z
" transform="scale(0.015625)"/>
      <path id="ArialMT-4c" d="M 469 0 
L 469 4581 
L 1075 4581 
L 1075 541 
L 3331 541 
L 3331 0 
L 469 0 
z
" transform="scale(0.015625)"/>
     </defs>
     <use xlink:href="#ArialMT-50"/>
     <use xlink:href="#ArialMT-47" transform="translate(66.699219 0)"/>
     <use xlink:href="#ArialMT-20" transform="translate(144.482422 0)"/>
     <use xlink:href="#ArialMT-4c" transform="translate(172.265625 0)"/>
     <use xlink:href="#ArialMT-6f" transform="translate(227.880859 0)"/>
     <use xlink:href="#ArialMT-73" transform="translate(283.496094 0)"/>
     <use xlink:href="#ArialMT-73" transform="translate(333.496094 0)"/>
    </g>
   </g>
  </g>
 </g>
 <defs>
  <clipPath id="pf952d358de">
   <rect x="72.272109" y="70.95" width="545.7" height="239.1"/>
  </clipPath>
 </defs>
</svg>
